<svg xmlns="http://www.w3.org/2000/svg" width="1441" height="451" viewBox="0 0 1441 451" fill="none"><rect x="0.333984" y="0.894531" width="1440" height="450" fill="#3843D0"></rect><mask id="mask0_4546_422148" style="mask-type:alpha" maskUnits="userSpaceOnUse" x="0" y="0" width="1441" height="451"><rect x="0.333984" y="0.894531" width="1440" height="450" fill="#3843D0"></rect></mask><g mask="url(#mask0_4546_422148)"><path d="M1211.23 798.354H1030.92V797.227C1041.36 797.227 1049.85 788.727 1049.85 778.289V620.878C1049.85 619.39 1051.07 618.172 1052.56 618.172H1223.03C1224.51 618.172 1225.73 619.39 1225.73 620.878V783.857C1225.73 791.838 1219.24 798.354 1211.23 798.354ZM1037.57 797.227H1211.23C1218.61 797.227 1224.6 791.229 1224.6 783.857V620.878C1224.6 619.998 1223.9 619.299 1223.03 619.299H1052.56C1051.68 619.299 1050.98 619.998 1050.98 620.878V778.289C1050.98 787.036 1045.37 794.476 1037.57 797.227ZM1031.5 790.824C1024.51 790.824 1018.81 785.142 1018.81 778.131V599.279C1018.81 598.378 1019.55 597.634 1020.46 597.634H1201C1201.31 597.634 1201.56 597.881 1201.56 598.197C1201.56 598.513 1201.31 598.761 1201 598.761H1020.46C1020.19 598.761 1019.94 598.986 1019.94 599.279V778.131C1019.94 784.511 1025.12 789.696 1031.5 789.696C1037.88 789.696 1043.05 784.511 1043.05 778.131V619.345C1043.05 619.029 1043.29 618.781 1043.61 618.781C1043.93 618.781 1044.17 619.029 1044.17 619.345V778.131C1044.2 785.12 1038.49 790.824 1031.5 790.824ZM1127.57 781.693H1074.32C1073.41 781.693 1072.67 780.949 1072.67 780.047V748.416C1072.67 747.514 1073.41 746.77 1074.32 746.77H1127.57C1128.47 746.77 1129.21 747.514 1129.21 748.416V780.047C1129.21 780.949 1128.49 781.693 1127.57 781.693ZM1074.32 747.92C1074.05 747.92 1073.8 748.146 1073.8 748.439V780.07C1073.8 780.34 1074.02 780.588 1074.32 780.588H1127.57C1127.84 780.588 1128.09 780.363 1128.09 780.07V748.439C1128.09 748.168 1127.86 747.92 1127.57 747.92H1074.32ZM1031.91 780.566C1031.59 780.566 1031.35 780.318 1031.35 780.002V610.777C1031.35 610.462 1031.59 610.214 1031.91 610.214C1032.22 610.214 1032.47 610.462 1032.47 610.777V780.002C1032.47 780.295 1032.22 780.566 1031.91 780.566ZM1208.44 777.68H1146.78C1146.46 777.68 1146.21 777.432 1146.21 777.116C1146.21 776.8 1146.46 776.553 1146.78 776.553H1208.44C1208.75 776.553 1209 776.8 1209 777.116C1209 777.432 1208.75 777.68 1208.44 777.68ZM1208.44 766.565H1146.78C1146.46 766.565 1146.21 766.317 1146.21 766.001C1146.21 765.686 1146.46 765.438 1146.78 765.438H1208.44C1208.75 765.438 1209 765.686 1209 766.001C1209 766.317 1208.75 766.565 1208.44 766.565ZM1208.44 755.924H1146.78C1146.46 755.924 1146.21 755.676 1146.21 755.36C1146.21 755.044 1146.46 754.796 1146.78 754.796H1208.44C1208.75 754.796 1209 755.044 1209 755.36C1209 755.676 1208.75 755.924 1208.44 755.924ZM1208.44 745.282H1146.78C1146.46 745.282 1146.21 745.034 1146.21 744.719C1146.21 744.403 1146.46 744.155 1146.78 744.155H1208.44C1208.75 744.155 1209 744.403 1209 744.719C1209 745.034 1208.75 745.282 1208.44 745.282ZM1208.44 734.979H1074.88C1074.56 734.979 1074.32 734.731 1074.32 734.415C1074.32 734.1 1074.56 733.852 1074.88 733.852H1208.44C1208.75 733.852 1209 734.1 1209 734.415C1209 734.731 1208.75 734.979 1208.44 734.979ZM859.032 734.641C857.657 734.641 856.575 733.694 856.394 732.341L855.988 729.523C854.726 720.528 847.85 713.539 838.854 712.141L836.171 711.712C834.841 711.509 833.917 710.427 833.917 709.075C833.917 707.722 834.841 706.64 836.171 706.437L838.854 706.031C847.827 704.633 854.726 697.644 855.988 688.649L856.394 685.831C856.575 684.478 857.679 683.531 859.032 683.531C860.385 683.531 861.49 684.478 861.67 685.831L862.076 688.671C863.338 697.667 870.215 704.656 879.21 706.054L881.893 706.459C883.223 706.662 884.148 707.744 884.148 709.097C884.148 710.45 883.223 711.532 881.893 711.735L879.21 712.163C870.237 713.561 863.338 720.528 862.076 729.546L861.67 732.364C861.49 733.694 860.407 734.641 859.032 734.641ZM859.032 684.681C858.423 684.681 857.634 685.019 857.499 686.011L857.093 688.829C855.763 698.321 848.503 705.693 839.012 707.158L836.329 707.564C835.36 707.722 835.022 708.466 835.022 709.075C835.022 709.683 835.36 710.45 836.329 710.585L839.012 711.013C848.481 712.479 855.741 719.851 857.071 729.343L857.476 732.161C857.612 733.13 858.378 733.491 859.01 733.491C859.641 733.491 860.407 733.153 860.543 732.161L860.949 729.343C862.279 719.851 869.538 712.479 879.007 711.013L881.69 710.585C882.66 710.427 882.998 709.683 882.998 709.075C882.998 708.466 882.66 707.699 881.69 707.564L879.007 707.158C869.538 705.67 862.279 698.321 860.949 688.829L860.543 686.011C860.43 685.019 859.663 684.681 859.032 684.681ZM979.153 728.711H919.341C918.101 728.711 917.086 727.697 917.086 726.457V683.148C917.086 681.908 918.101 680.893 919.341 680.893H979.153C980.393 680.893 981.408 681.908 981.408 683.148V726.457C981.43 727.697 980.416 728.711 979.153 728.711ZM919.341 681.998C918.709 681.998 918.213 682.516 918.213 683.125V726.435C918.213 727.066 918.732 727.562 919.341 727.562H979.153C979.784 727.562 980.281 727.043 980.281 726.435V683.125C980.281 682.494 979.762 681.998 979.153 681.998H919.341ZM1208.44 721.114H1074.88C1074.56 721.114 1074.32 720.866 1074.32 720.55C1074.32 720.235 1074.56 719.987 1074.88 719.987H1208.44C1208.75 719.987 1209 720.235 1209 720.55C1209 720.866 1208.75 721.114 1208.44 721.114ZM952.009 719.31H924.977C924.661 719.31 924.413 719.062 924.413 718.746C924.413 718.431 924.661 718.183 924.977 718.183H952.009C952.324 718.183 952.572 718.431 952.572 718.746C952.572 719.062 952.324 719.31 952.009 719.31ZM972.142 713.223H924.977C924.661 713.223 924.413 712.975 924.413 712.659C924.413 712.344 924.661 712.096 924.977 712.096H972.142C972.457 712.096 972.705 712.344 972.705 712.659C972.705 712.975 972.457 713.223 972.142 713.223ZM1208.44 708.827H1074.88C1074.56 708.827 1074.32 708.579 1074.32 708.263C1074.32 707.947 1074.56 707.699 1074.88 707.699H1208.44C1208.75 707.699 1209 707.947 1209 708.263C1209 708.579 1208.75 708.827 1208.44 708.827ZM972.142 707.136H924.977C924.661 707.136 924.413 706.888 924.413 706.572C924.413 706.257 924.661 706.008 924.977 706.008H972.142C972.457 706.008 972.705 706.257 972.705 706.572C972.705 706.888 972.457 707.136 972.142 707.136ZM972.142 701.049H924.977C924.661 701.049 924.413 700.801 924.413 700.485C924.413 700.169 924.661 699.921 924.977 699.921H972.142C972.457 699.921 972.705 700.169 972.705 700.485C972.705 700.801 972.457 701.049 972.142 701.049ZM1207.54 696.539H1074.32C1073.41 696.539 1072.67 695.795 1072.67 694.894V656.116C1072.67 655.214 1073.41 654.47 1074.32 654.47H1207.54C1208.44 654.47 1209.18 655.214 1209.18 656.116V694.916C1209.16 695.818 1208.44 696.539 1207.54 696.539ZM1074.32 655.62C1074.05 655.62 1073.8 655.845 1073.8 656.138V694.939C1073.8 695.209 1074.02 695.457 1074.32 695.457H1207.54C1207.81 695.457 1208.05 695.232 1208.05 694.939V656.116C1208.05 655.845 1207.83 655.597 1207.54 655.597H1074.32V655.62ZM929.576 695.683C926.735 695.683 924.413 693.361 924.413 690.52C924.413 687.679 926.735 685.357 929.576 685.357C932.417 685.357 934.739 687.679 934.739 690.52C934.739 693.383 932.439 695.683 929.576 695.683ZM929.576 686.484C927.344 686.484 925.541 688.288 925.541 690.52C925.541 692.752 927.344 694.556 929.576 694.556C931.808 694.556 933.612 692.752 933.612 690.52C933.612 688.288 931.808 686.484 929.576 686.484ZM1155.21 644.528H1074.86C1074.54 644.528 1074.29 644.28 1074.29 643.964C1074.29 643.648 1074.54 643.4 1074.86 643.4H1155.21C1155.52 643.4 1155.77 643.648 1155.77 643.964C1155.77 644.28 1155.52 644.528 1155.21 644.528ZM888.995 640.064C886.695 640.064 884.824 638.192 884.824 635.893C884.824 633.593 886.695 631.722 888.995 631.722C891.294 631.722 893.166 633.593 893.166 635.893C893.166 638.192 891.294 640.064 888.995 640.064ZM888.995 632.827C887.304 632.827 885.951 634.202 885.951 635.87C885.951 637.539 887.326 638.914 888.995 638.914C890.663 638.914 892.038 637.539 892.038 635.87C892.038 634.202 890.686 632.827 888.995 632.827ZM863.609 640.064C861.309 640.064 859.438 638.192 859.438 635.893C859.438 633.593 861.309 631.722 863.609 631.722C865.908 631.722 867.78 633.593 867.78 635.893C867.78 638.192 865.908 640.064 863.609 640.064ZM863.609 632.827C861.918 632.827 860.565 634.202 860.565 635.87C860.565 637.539 861.941 638.914 863.609 638.914C865.277 638.914 866.652 637.539 866.652 635.87C866.652 634.202 865.277 632.827 863.609 632.827ZM825.214 634.675H612.973C611.733 634.675 610.719 633.661 610.719 632.421V475.281C610.719 474.041 611.733 473.026 612.973 473.026H825.214C826.454 473.026 827.469 474.041 827.469 475.281V632.421C827.469 633.661 826.454 634.675 825.214 634.675ZM612.951 474.131C612.32 474.131 611.824 474.649 611.824 475.258V632.398C611.824 633.03 612.342 633.526 612.951 633.526H825.192C825.823 633.526 826.319 633.007 826.319 632.398V475.258C826.319 474.627 825.801 474.131 825.192 474.131H612.951ZM892.422 627.777H859.483L857.409 608.636H898.419C898.734 608.636 898.982 608.884 898.982 609.199C898.982 609.515 898.734 609.763 898.419 609.763H858.671L860.498 626.649H892.422C892.737 626.649 892.985 626.897 892.985 627.213C892.985 627.529 892.715 627.777 892.422 627.777ZM572.73 624.417H485.863C484.623 624.417 483.609 623.403 483.609 622.163V480.488C483.609 479.249 484.623 478.234 485.863 478.234H572.73C573.97 478.234 574.985 479.249 574.985 480.488V622.14C574.985 623.403 573.97 624.417 572.73 624.417ZM485.863 479.361C485.232 479.361 484.736 479.88 484.736 480.488V622.14C484.736 622.771 485.255 623.268 485.863 623.268H572.73C573.361 623.268 573.858 622.749 573.858 622.14V480.488C573.858 479.857 573.339 479.361 572.73 479.361H485.863ZM809.14 620.81H629.026C628.237 620.81 627.605 620.179 627.605 619.39V488.289C627.605 487.5 628.237 486.869 629.026 486.869H809.14C809.929 486.869 810.56 487.5 810.56 488.289V619.39C810.56 620.156 809.929 620.81 809.14 620.81ZM629.026 487.996C628.868 487.996 628.733 488.131 628.733 488.289V619.39C628.733 619.548 628.868 619.683 629.026 619.683H809.14C809.297 619.683 809.433 619.548 809.433 619.39V488.289C809.433 488.131 809.297 487.996 809.14 487.996H629.026ZM1413.96 618.713H1250.03C1248.43 618.713 1247.13 617.406 1247.13 615.805V478.662C1247.13 477.062 1248.43 475.754 1250.03 475.754H1279.12C1279.43 475.754 1279.68 476.002 1279.68 476.318C1279.68 476.633 1279.43 476.881 1279.12 476.881H1250.03C1249.04 476.881 1248.25 477.693 1248.25 478.662V615.805C1248.25 616.797 1249.06 617.586 1250.03 617.586H1413.96C1414.95 617.586 1415.74 616.774 1415.74 615.805V478.662C1415.74 477.67 1414.93 476.881 1413.96 476.881H1388.55C1388.24 476.881 1387.99 476.633 1387.99 476.318C1387.99 476.002 1388.24 475.754 1388.55 475.754H1413.96C1415.56 475.754 1416.87 477.062 1416.87 478.662V615.805C1416.89 617.383 1415.58 618.713 1413.96 618.713ZM529.534 616.594C524.889 616.594 521.102 612.806 521.102 608.14C521.102 603.495 524.889 599.708 529.534 599.708C534.178 599.708 537.965 603.495 537.965 608.14C537.988 612.806 534.2 616.594 529.534 616.594ZM529.534 600.835C525.498 600.835 522.229 604.127 522.229 608.14C522.229 612.153 525.52 615.467 529.534 615.467C533.547 615.467 536.838 612.175 536.838 608.14C536.838 604.104 533.569 600.835 529.534 600.835ZM788.173 611.116H650.624C647.964 611.116 645.799 608.951 645.799 606.313V600.61C645.799 597.949 647.964 595.785 650.624 595.785H788.173C790.833 595.785 792.997 597.949 792.997 600.61V606.313C792.997 608.974 790.833 611.116 788.173 611.116ZM650.624 596.912C648.595 596.912 646.927 598.558 646.927 600.61V606.313C646.927 608.342 648.572 609.988 650.624 609.988H788.173C790.202 609.988 791.87 608.342 791.87 606.313V600.61C791.87 598.58 790.224 596.912 788.173 596.912H650.624ZM899.839 604.69H856.439C855.853 604.69 855.357 604.284 855.222 603.721L851.141 585.076C851.051 584.715 851.141 584.332 851.389 584.039C851.637 583.746 851.976 583.565 852.359 583.565H903.92C904.303 583.565 904.664 583.746 904.889 584.039C905.115 584.332 905.227 584.715 905.137 585.076L901.056 603.721C900.921 604.262 900.425 604.69 899.839 604.69ZM852.359 584.67L852.246 584.805L856.327 603.45C856.327 603.495 856.394 603.54 856.439 603.54H899.839C899.884 603.54 899.952 603.495 899.952 603.45L904.033 584.805L903.92 584.67H852.359ZM1309.04 595.018C1308.72 595.018 1308.47 594.77 1308.47 594.455V574.254H1286.2V594.455C1286.2 594.77 1285.95 595.018 1285.63 595.018C1285.32 595.018 1285.07 594.77 1285.07 594.455V574.254H1262.34C1262.03 574.254 1261.78 574.006 1261.78 573.69C1261.78 573.375 1262.03 573.127 1262.34 573.127H1285.07V562.779C1285.07 562.463 1285.32 562.215 1285.63 562.215C1285.95 562.215 1286.2 562.463 1286.2 562.779V573.127H1308.47V557.706C1308.47 557.39 1308.72 557.142 1309.04 557.142C1309.35 557.142 1309.6 557.39 1309.6 557.706V573.127H1331.87V550.604H1317.33C1317.02 550.604 1316.77 550.356 1316.77 550.041C1316.77 549.725 1317.02 549.477 1317.33 549.477H1331.87V526.977H1312.44C1312.12 526.977 1311.88 526.729 1311.88 526.413C1311.88 526.097 1312.12 525.85 1312.44 525.85H1331.87V504.048C1331.87 503.733 1332.12 503.485 1332.44 503.485C1332.75 503.485 1333 503.733 1333 504.048V525.85H1355.25V504.048C1355.25 503.733 1355.5 503.485 1355.82 503.485C1356.13 503.485 1356.38 503.733 1356.38 504.048V525.85H1378.65V504.048C1378.65 503.733 1378.9 503.485 1379.22 503.485C1379.53 503.485 1379.78 503.733 1379.78 504.048V525.85H1402.21C1402.53 525.85 1402.78 526.097 1402.78 526.413C1402.78 526.729 1402.53 526.977 1402.21 526.977H1379.78V549.477H1402.21C1402.53 549.477 1402.78 549.725 1402.78 550.041C1402.78 550.356 1402.53 550.604 1402.21 550.604H1379.78V573.127H1390.51C1390.83 573.127 1391.08 573.375 1391.08 573.69C1391.08 574.006 1390.83 574.254 1390.51 574.254H1379.78V581.401C1379.78 581.717 1379.53 581.965 1379.22 581.965C1378.9 581.965 1378.65 581.717 1378.65 581.401V574.254H1356.38V594.455C1356.38 594.77 1356.13 595.018 1355.82 595.018C1355.5 595.018 1355.25 594.77 1355.25 594.455V574.254H1333V594.455C1333 594.77 1332.75 595.018 1332.44 595.018C1332.12 595.018 1331.87 594.77 1331.87 594.455V574.254H1309.6V594.455C1309.6 594.77 1309.35 595.018 1309.04 595.018ZM1356.38 573.127H1378.65V550.604H1356.38V573.127ZM1333 573.127H1355.25V550.604H1333V573.127ZM1356.38 549.499H1378.65V526.999H1356.38V549.499ZM1333 549.499H1355.25V526.999H1333V549.499ZM562.878 594.928H495.693V497.691H562.878V594.928ZM496.82 593.801H561.751V498.818H496.82V593.801ZM551.515 584.512H507.079C505.839 584.512 504.824 583.498 504.824 582.258V569.723C504.824 568.483 505.839 567.468 507.079 567.468H551.515C552.755 567.468 553.77 568.483 553.77 569.723V582.258C553.77 583.498 552.755 584.512 551.515 584.512ZM507.079 568.573C506.447 568.573 505.951 569.091 505.951 569.7V582.235C505.951 582.866 506.47 583.362 507.079 583.362H551.515C552.146 583.362 552.642 582.844 552.642 582.235V569.7C552.642 569.069 552.124 568.573 551.515 568.573H507.079ZM1213.01 582.303H1153.2C1151.96 582.303 1150.95 581.288 1150.95 580.048V536.739C1150.95 535.499 1151.96 534.484 1153.2 534.484H1213.01C1214.25 534.484 1215.27 535.499 1215.27 536.739V580.048C1215.29 581.288 1214.28 582.303 1213.01 582.303ZM1153.2 535.589C1152.57 535.589 1152.08 536.108 1152.08 536.716V580.026C1152.08 580.657 1152.59 581.153 1153.2 581.153H1213.01C1213.65 581.153 1214.14 580.634 1214.14 580.026V536.716C1214.14 536.085 1213.62 535.589 1213.01 535.589H1153.2ZM856.191 580.409C856.056 580.409 855.898 580.364 855.786 580.251L846.429 570.872C846.204 570.647 846.204 570.286 846.429 570.083C846.655 569.88 847.016 569.858 847.218 570.083L856.575 579.462C856.8 579.687 856.8 580.048 856.575 580.251C856.484 580.341 856.327 580.409 856.191 580.409ZM1185.87 572.901H1158.84C1158.52 572.901 1158.28 572.653 1158.28 572.338C1158.28 572.022 1158.52 571.774 1158.84 571.774H1185.87C1186.19 571.774 1186.43 572.022 1186.43 572.338C1186.43 572.653 1186.19 572.901 1185.87 572.901ZM1065.7 568.28H1024.15C1018.43 568.28 1013.76 563.613 1013.76 557.886C1013.76 552.16 1018.43 547.493 1024.15 547.493H1065.7C1071.43 547.493 1076.1 552.16 1076.1 557.886C1076.08 563.613 1071.43 568.28 1065.7 568.28ZM1024.15 548.62C1019.06 548.62 1014.89 552.769 1014.89 557.886C1014.89 563.004 1019.04 567.152 1024.15 567.152H1065.7C1070.8 567.152 1074.97 563.004 1074.97 557.886C1074.97 552.769 1070.82 548.62 1065.7 548.62H1024.15ZM707.641 567.107C707.393 567.107 707.145 567.04 706.942 566.927C706.491 566.679 706.243 566.206 706.243 565.71V526.052C706.243 525.534 706.514 525.083 706.942 524.835C707.393 524.587 707.911 524.587 708.362 524.835L742.699 544.652C743.15 544.9 743.398 545.374 743.398 545.87C743.398 546.366 743.127 546.839 742.699 547.087L708.362 566.904C708.114 567.04 707.889 567.107 707.641 567.107ZM707.641 525.759C707.573 525.759 707.528 525.782 707.506 525.804C707.461 525.827 707.37 525.895 707.37 526.052V565.71C707.37 565.867 707.461 565.935 707.506 565.957C707.551 565.98 707.663 566.025 707.799 565.957L742.135 546.14C742.27 546.073 742.27 545.937 742.27 545.892C742.27 545.847 742.248 545.712 742.135 545.644L707.799 525.827C707.731 525.759 707.686 525.759 707.641 525.759ZM1206 566.814H1158.84C1158.52 566.814 1158.28 566.566 1158.28 566.251C1158.28 565.935 1158.52 565.687 1158.84 565.687H1206C1206.32 565.687 1206.57 565.935 1206.57 566.251C1206.57 566.566 1206.32 566.814 1206 566.814ZM1067.94 560.93H1022.49C1022.17 560.93 1021.92 560.682 1021.92 560.366C1021.92 560.051 1022.17 559.803 1022.49 559.803H1067.94C1068.25 559.803 1068.5 560.051 1068.5 560.366C1068.5 560.682 1068.25 560.93 1067.94 560.93ZM1206 560.727H1158.84C1158.52 560.727 1158.28 560.479 1158.28 560.163C1158.28 559.848 1158.52 559.6 1158.84 559.6H1206C1206.32 559.6 1206.57 559.848 1206.57 560.163C1206.57 560.479 1206.32 560.727 1206 560.727ZM1296.39 560.163C1295.44 560.163 1294.47 559.803 1293.75 559.081L1292.24 557.616C1291.63 557.03 1290.84 556.782 1290.01 556.894L1287.93 557.187C1285.9 557.48 1284.01 556.105 1283.65 554.076L1283.27 552.025C1283.11 551.213 1282.61 550.514 1281.89 550.108L1280.02 549.116C1278.19 548.147 1277.47 545.937 1278.4 544.089L1279.32 542.195C1279.68 541.451 1279.68 540.572 1279.32 539.85L1278.4 537.934C1277.49 536.108 1278.24 533.853 1280.04 532.906L1281.89 531.914C1282.61 531.531 1283.13 530.832 1283.27 529.998L1283.63 527.924C1283.99 525.895 1285.88 524.519 1287.91 524.79L1289.98 525.083C1290.8 525.196 1291.63 524.925 1292.22 524.361L1293.73 522.896C1295.21 521.453 1297.54 521.453 1299.02 522.896L1300.54 524.361C1301.12 524.925 1301.96 525.196 1302.77 525.083L1304.84 524.79C1306.85 524.497 1308.76 525.872 1309.13 527.901L1309.42 529.547C1309.46 529.863 1309.26 530.156 1308.97 530.201C1308.65 530.246 1308.36 530.043 1308.31 529.75L1308.02 528.104C1307.77 526.661 1306.42 525.714 1305 525.917L1302.93 526.21C1301.78 526.391 1300.58 525.985 1299.75 525.173L1298.24 523.708C1297.2 522.693 1295.55 522.693 1294.52 523.708L1293.01 525.173C1292.17 525.985 1290.98 526.368 1289.83 526.21L1287.75 525.917C1286.35 525.737 1285 526.684 1284.73 528.127L1284.37 530.201C1284.17 531.373 1283.45 532.342 1282.41 532.906L1280.54 533.898C1279.28 534.574 1278.76 536.153 1279.39 537.438L1280.31 539.354C1280.83 540.391 1280.83 541.654 1280.31 542.691L1279.39 544.585C1278.73 545.892 1279.25 547.448 1280.54 548.124L1282.41 549.116C1283.45 549.68 1284.17 550.649 1284.37 551.822L1284.75 553.873C1285 555.316 1286.33 556.263 1287.77 556.06L1289.85 555.767C1291.02 555.587 1292.17 555.97 1293.03 556.804L1294.54 558.27C1295.6 559.284 1297.22 559.284 1298.28 558.27L1299.79 556.804C1300.63 555.993 1301.84 555.609 1302.97 555.767L1305.04 556.06C1306.49 556.263 1307.8 555.294 1308.07 553.873L1308.43 551.799C1308.63 550.627 1309.35 549.657 1310.39 549.094L1312.26 548.102C1313.52 547.425 1314.04 545.847 1313.41 544.562L1312.48 542.668C1311.97 541.631 1311.97 540.369 1312.48 539.332L1313.41 537.438C1314.04 536.13 1313.54 534.574 1312.26 533.898L1311.33 533.402C1311.06 533.267 1310.95 532.929 1311.11 532.636C1311.24 532.365 1311.58 532.252 1311.88 532.388L1312.82 532.884C1314.65 533.853 1315.37 536.063 1314.45 537.911L1313.52 539.805C1313.16 540.549 1313.16 541.428 1313.52 542.15L1314.45 544.043C1315.35 545.87 1314.63 548.124 1312.82 549.071L1310.95 550.063C1310.23 550.446 1309.71 551.145 1309.58 551.979L1309.22 554.054C1308.85 556.083 1306.98 557.458 1304.93 557.165L1302.86 556.872C1302.05 556.759 1301.21 557.03 1300.63 557.593L1299.12 559.059C1298.28 559.803 1297.33 560.163 1296.39 560.163ZM1067.94 555.474H1022.49C1022.17 555.474 1021.92 555.226 1021.92 554.91C1021.92 554.595 1022.17 554.347 1022.49 554.347H1067.94C1068.25 554.347 1068.5 554.595 1068.5 554.91C1068.5 555.226 1068.25 555.474 1067.94 555.474ZM1002.49 555.294H843.544C842.304 555.294 841.289 554.279 841.289 553.039V369.047C841.289 367.807 842.304 366.793 843.544 366.793H1002.49C1003.73 366.793 1004.74 367.807 1004.74 369.047V553.039C1004.74 554.279 1003.73 555.294 1002.49 555.294ZM843.544 367.898C842.912 367.898 842.416 368.416 842.416 369.025V553.016C842.416 553.648 842.935 554.144 843.544 554.144H1002.49C1003.12 554.144 1003.61 553.625 1003.61 553.016V369.025C1003.61 368.394 1003.1 367.898 1002.49 367.898H843.544ZM1206 554.64H1158.84C1158.52 554.64 1158.28 554.392 1158.28 554.076C1158.28 553.761 1158.52 553.513 1158.84 553.513H1206C1206.32 553.513 1206.57 553.761 1206.57 554.076C1206.57 554.392 1206.32 554.64 1206 554.64ZM1276.3 550.627H1262.37C1262.05 550.627 1261.8 550.379 1261.8 550.063C1261.8 549.747 1262.05 549.499 1262.37 549.499H1276.3C1276.62 549.499 1276.86 549.747 1276.86 550.063C1276.86 550.379 1276.59 550.627 1276.3 550.627ZM1163.44 549.274C1160.6 549.274 1158.28 546.952 1158.28 544.111C1158.28 541.27 1160.6 538.948 1163.44 538.948C1166.28 538.948 1168.6 541.27 1168.6 544.111C1168.62 546.974 1166.3 549.274 1163.44 549.274ZM1163.44 540.076C1161.21 540.076 1159.4 541.879 1159.4 544.111C1159.4 546.343 1161.21 548.147 1163.44 548.147C1165.67 548.147 1167.47 546.343 1167.47 544.111C1167.47 541.879 1165.67 540.076 1163.44 540.076ZM1293.34 547.2L1288 541.834C1287.77 541.609 1287.77 541.248 1288 541.045C1288.23 540.842 1288.59 540.82 1288.79 541.045L1293.37 545.622L1303.96 535.544C1304.19 535.319 1304.55 535.341 1304.75 535.566C1304.98 535.792 1304.95 536.153 1304.73 536.356L1293.34 547.2ZM1122.27 544.585C1116.12 544.585 1111.13 539.58 1111.13 533.447C1111.13 527.315 1116.14 522.31 1122.27 522.31C1128.4 522.31 1133.41 527.315 1133.41 533.447C1133.41 539.58 1128.43 544.585 1122.27 544.585ZM1122.27 523.437C1116.75 523.437 1112.26 527.924 1112.26 533.447C1112.26 538.971 1116.75 543.457 1122.27 543.457C1127.79 543.457 1132.28 538.971 1132.28 533.447C1132.28 527.924 1127.79 523.437 1122.27 523.437ZM1097.72 543.074H1056.17C1050.44 543.074 1045.77 538.407 1045.77 532.681C1045.77 526.954 1050.44 522.287 1056.17 522.287H1097.72C1103.44 522.287 1108.11 526.954 1108.11 532.681C1108.11 538.407 1103.44 543.074 1097.72 543.074ZM1056.19 523.437C1051.1 523.437 1046.92 527.586 1046.92 532.703C1046.92 537.821 1051.07 541.969 1056.19 541.969H1097.74C1102.84 541.969 1107.01 537.821 1107.01 532.703C1107.01 527.586 1102.86 523.437 1097.74 523.437H1056.19ZM987.946 537.325H932.349C931.56 537.325 930.929 536.694 930.929 535.905V513.179C930.929 512.39 931.56 511.759 932.349 511.759H987.923C988.712 511.759 989.344 512.39 989.344 513.179V535.905C989.344 536.694 988.712 537.325 987.946 537.325ZM932.349 512.886C932.191 512.886 932.056 513.021 932.056 513.179V535.905C932.056 536.063 932.191 536.198 932.349 536.198H987.923C988.081 536.198 988.216 536.063 988.216 535.905V513.179C988.216 513.021 988.081 512.886 987.923 512.886H932.349ZM914.674 537.325H857.409C857.093 537.325 856.845 537.077 856.845 536.761C856.845 536.446 857.093 536.198 857.409 536.198H914.674C914.989 536.198 915.237 536.446 915.237 536.761C915.237 537.077 914.967 537.325 914.674 537.325ZM1099.64 535.86H1054.18C1053.87 535.86 1053.62 535.612 1053.62 535.296C1053.62 534.98 1053.87 534.732 1054.18 534.732H1099.64C1099.95 534.732 1100.2 534.98 1100.2 535.296C1100.2 535.612 1099.95 535.86 1099.64 535.86ZM1099.64 530.404H1054.18C1053.87 530.404 1053.62 530.156 1053.62 529.84C1053.62 529.524 1053.87 529.276 1054.18 529.276H1099.64C1099.95 529.276 1100.2 529.524 1100.2 529.84C1100.2 530.156 1099.95 530.404 1099.64 530.404ZM1281.19 526.977H1262.37C1262.05 526.977 1261.8 526.729 1261.8 526.413C1261.8 526.097 1262.05 525.85 1262.37 525.85H1281.19C1281.51 525.85 1281.76 526.097 1281.76 526.413C1281.76 526.729 1281.48 526.977 1281.19 526.977ZM546.42 525.669H511.881C511.565 525.669 511.317 525.421 511.317 525.105C511.317 524.79 511.565 524.542 511.881 524.542H546.42C546.736 524.542 546.984 524.79 546.984 525.105C546.984 525.421 546.713 525.669 546.42 525.669ZM914.674 524.835H857.409C857.093 524.835 856.845 524.587 856.845 524.271C856.845 523.956 857.093 523.708 857.409 523.708H914.674C914.989 523.708 915.237 523.956 915.237 524.271C915.237 524.587 914.967 524.835 914.674 524.835ZM1213.71 523.73H1153.9C1152.66 523.73 1151.65 522.716 1151.65 521.476V478.166C1151.65 476.926 1152.66 475.912 1153.9 475.912H1213.71C1214.95 475.912 1215.97 476.926 1215.97 478.166V521.476C1215.99 522.716 1214.98 523.73 1213.71 523.73ZM1153.9 477.039C1153.27 477.039 1152.77 477.558 1152.77 478.166V521.476C1152.77 522.107 1153.29 522.603 1153.9 522.603H1213.71C1214.35 522.603 1214.84 522.084 1214.84 521.476V478.166C1214.84 477.535 1214.32 477.039 1213.71 477.039H1153.9ZM1309.04 522.175C1308.72 522.175 1308.47 521.927 1308.47 521.611V504.048C1308.47 503.733 1308.72 503.485 1309.04 503.485C1309.35 503.485 1309.6 503.733 1309.6 504.048V521.611C1309.6 521.927 1309.35 522.175 1309.04 522.175ZM546.42 520.912H511.881C511.565 520.912 511.317 520.664 511.317 520.349C511.317 520.033 511.565 519.785 511.881 519.785H546.42C546.736 519.785 546.984 520.033 546.984 520.349C546.984 520.664 546.713 520.912 546.42 520.912ZM1285.66 520.303C1285.34 520.303 1285.09 520.055 1285.09 519.74V504.071C1285.09 503.755 1285.34 503.507 1285.66 503.507C1285.97 503.507 1286.22 503.755 1286.22 504.071V519.74C1286.22 520.055 1285.95 520.303 1285.66 520.303ZM1186.57 514.351H1159.54C1159.22 514.351 1158.97 514.104 1158.97 513.788C1158.97 513.472 1159.22 513.224 1159.54 513.224H1186.57C1186.88 513.224 1187.13 513.472 1187.13 513.788C1187.13 514.104 1186.86 514.351 1186.57 514.351ZM914.674 512.886H857.409C857.093 512.886 856.845 512.638 856.845 512.322C856.845 512.007 857.093 511.759 857.409 511.759H914.674C914.989 511.759 915.237 512.007 915.237 512.322C915.237 512.638 914.967 512.886 914.674 512.886ZM1206.7 508.264H1159.54C1159.22 508.264 1158.97 508.016 1158.97 507.701C1158.97 507.385 1159.22 507.137 1159.54 507.137H1206.7C1207.02 507.137 1207.27 507.385 1207.27 507.701C1207.27 508.016 1207.02 508.264 1206.7 508.264ZM1206.7 502.177H1159.54C1159.22 502.177 1158.97 501.929 1158.97 501.613C1158.97 501.298 1159.22 501.05 1159.54 501.05H1206.7C1207.02 501.05 1207.27 501.298 1207.27 501.613C1207.27 501.929 1207.02 502.177 1206.7 502.177ZM988.78 500.937H931.493C931.177 500.937 930.929 500.689 930.929 500.373C930.929 500.058 931.177 499.81 931.493 499.81H988.78C989.096 499.81 989.344 500.058 989.344 500.373C989.344 500.689 989.096 500.937 988.78 500.937ZM914.674 500.937H857.409C857.093 500.937 856.845 500.689 856.845 500.373C856.845 500.058 857.093 499.81 857.409 499.81H914.674C914.989 499.81 915.237 500.058 915.237 500.373C915.237 500.689 914.967 500.937 914.674 500.937ZM1206.7 496.067H1159.54C1159.22 496.067 1158.97 495.819 1158.97 495.504C1158.97 495.188 1159.22 494.94 1159.54 494.94H1206.7C1207.02 494.94 1207.27 495.188 1207.27 495.504C1207.27 495.819 1207.02 496.067 1206.7 496.067ZM1164.14 490.724C1161.3 490.724 1158.97 488.402 1158.97 485.561C1158.97 482.721 1161.3 480.398 1164.14 480.398C1166.98 480.398 1169.3 482.721 1169.3 485.561C1169.3 488.402 1166.98 490.724 1164.14 490.724ZM1164.14 481.503C1161.9 481.503 1160.1 483.307 1160.1 485.539C1160.1 487.771 1161.9 489.574 1164.14 489.574C1166.37 489.574 1168.17 487.771 1168.17 485.539C1168.17 483.307 1166.37 481.503 1164.14 481.503ZM1379.22 488.176C1376.74 488.176 1374.71 486.147 1374.71 483.667V462.452C1374.71 459.972 1376.74 457.943 1379.22 457.943C1381.7 457.943 1383.73 459.972 1383.73 462.452V483.667C1383.73 486.147 1381.7 488.176 1379.22 488.176ZM1379.22 459.093C1377.35 459.093 1375.84 460.604 1375.84 462.475V483.69C1375.84 485.561 1377.35 487.072 1379.22 487.072C1381.09 487.072 1382.6 485.561 1382.6 483.69V462.475C1382.6 460.604 1381.09 459.093 1379.22 459.093ZM1289.58 488.176C1287.1 488.176 1285.07 486.147 1285.07 483.667V462.452C1285.07 459.972 1287.1 457.943 1289.58 457.943C1292.06 457.943 1294.09 459.972 1294.09 462.452V483.667C1294.09 486.147 1292.06 488.176 1289.58 488.176ZM1289.58 459.093C1287.71 459.093 1286.2 460.604 1286.2 462.475V483.69C1286.2 485.561 1287.71 487.072 1289.58 487.072C1291.45 487.072 1292.96 485.561 1292.96 483.69V462.475C1292.96 460.604 1291.45 459.093 1289.58 459.093ZM987.946 486.395H858.085C857.296 486.395 856.665 485.764 856.665 484.975V409.539C856.665 408.75 857.296 408.118 858.085 408.118H987.946C988.735 408.118 989.366 408.75 989.366 409.539V484.975C989.366 485.764 988.712 486.395 987.946 486.395ZM858.085 409.268C857.927 409.268 857.792 409.403 857.792 409.561V484.998C857.792 485.155 857.927 485.291 858.085 485.291H987.946C988.104 485.291 988.239 485.155 988.239 484.998V409.561C988.239 409.403 988.104 409.268 987.946 409.268H858.085ZM875.062 480.241C874.927 480.241 874.814 480.195 874.701 480.105C874.453 479.902 874.431 479.542 874.633 479.316L894.902 455.283C896.299 453.615 898.351 452.668 900.538 452.668C902.725 452.668 904.754 453.615 906.174 455.283L907.144 456.455C908.339 457.853 910.075 458.665 911.923 458.665C913.772 458.665 915.508 457.853 916.68 456.455L930.794 439.727C932.191 438.058 934.243 437.112 936.43 437.112C938.594 437.112 940.646 438.058 942.066 439.727L975.343 479.181C975.546 479.429 975.523 479.767 975.275 479.97C975.027 480.173 974.689 480.15 974.486 479.902L941.21 440.448C940.015 439.05 938.279 438.239 936.453 438.239C934.604 438.239 932.868 439.05 931.695 440.448L917.582 457.177C916.184 458.845 914.133 459.792 911.968 459.792C909.804 459.792 907.73 458.845 906.332 457.177L905.363 456.004C904.168 454.607 902.432 453.795 900.606 453.795C898.779 453.795 897.021 454.607 895.849 456.004L875.58 480.038C875.4 480.173 875.242 480.241 875.062 480.241ZM463.499 480.015C462.146 480.015 461.041 479.068 460.861 477.716L460.455 474.897C459.192 465.902 452.316 458.913 443.321 457.515L440.638 457.087C439.308 456.884 438.383 455.802 438.383 454.449C438.383 453.096 439.308 452.014 440.638 451.811L443.321 451.383C452.294 449.985 459.192 442.996 460.455 434L460.861 431.182C461.041 429.829 462.146 428.883 463.499 428.883C464.874 428.883 465.956 429.829 466.136 431.182L466.542 434C467.805 442.996 474.681 449.985 483.677 451.383L486.359 451.811C487.69 452.014 488.614 453.096 488.614 454.449C488.614 455.802 487.69 456.884 486.359 457.087L483.677 457.515C474.704 458.913 467.805 465.879 466.542 474.897L466.136 477.716C465.933 479.068 464.851 480.015 463.499 480.015ZM463.499 430.032C462.89 430.032 462.123 430.37 461.965 431.362L461.56 434.181C460.229 443.672 452.97 451.044 443.478 452.51L440.796 452.938C439.826 453.096 439.488 453.84 439.488 454.449C439.488 455.058 439.826 455.824 440.796 455.959L443.478 456.388C452.947 457.853 460.207 465.225 461.56 474.717L461.965 477.535C462.101 478.505 462.867 478.865 463.499 478.865C464.107 478.865 464.896 478.527 465.032 477.535L465.437 474.717C466.768 465.225 474.027 457.853 483.519 456.388L486.202 455.959C487.171 455.802 487.509 455.058 487.509 454.449C487.509 453.84 487.171 453.074 486.202 452.938L483.474 452.532C474.005 451.067 466.745 443.695 465.415 434.203L465.009 431.385C464.874 430.393 464.107 430.032 463.499 430.032ZM1369.75 476.859H1299.48C1299.16 476.859 1298.91 476.611 1298.91 476.295C1298.91 475.98 1299.16 475.731 1299.48 475.731H1369.75C1370.07 475.731 1370.31 475.98 1370.31 476.295C1370.31 476.611 1370.04 476.859 1369.75 476.859ZM785.332 460.559C783.415 460.559 781.477 459.837 779.966 458.394L776.652 455.17C775.164 453.75 773.157 453.119 771.173 453.389L766.597 454.043C762.493 454.629 758.661 451.856 757.939 447.753L757.128 443.221C756.767 441.215 755.527 439.524 753.723 438.554L749.62 436.39C745.945 434.429 744.48 429.965 746.329 426.222L748.358 422.051C749.259 420.225 749.259 418.106 748.358 416.28L746.329 412.086C744.525 408.389 746.013 403.835 749.643 401.918L753.746 399.754C755.55 398.807 756.79 397.094 757.15 395.087L757.939 390.533C758.661 386.407 762.471 383.634 766.597 384.22L771.173 384.874C773.157 385.167 775.209 384.491 776.652 383.093L779.966 379.869C782.964 376.961 787.677 376.961 790.675 379.869L793.989 383.093C795.455 384.491 797.506 385.167 799.468 384.874L804.044 384.22C808.17 383.634 811.98 386.407 812.702 390.51L813.356 394.14C813.401 394.456 813.198 394.749 812.905 394.794C812.589 394.862 812.296 394.636 812.251 394.343L811.597 390.713C810.966 387.219 807.742 384.852 804.202 385.348L799.625 386.001C797.281 386.362 794.936 385.596 793.2 383.927L789.863 380.703C787.293 378.223 783.28 378.223 780.733 380.703L777.418 383.927C775.728 385.573 773.315 386.362 770.993 386.001L766.416 385.348C762.899 384.874 759.653 387.219 759.022 390.736L758.232 395.29C757.827 397.635 756.361 399.619 754.264 400.746L750.161 402.91C747.05 404.534 745.787 408.434 747.343 411.59L749.372 415.784C750.409 417.926 750.409 420.383 749.372 422.547L747.343 426.718C745.787 429.92 747.027 433.73 750.161 435.398L754.264 437.562C756.384 438.69 757.827 440.674 758.232 443.018L759.044 447.55C759.675 451.044 762.899 453.412 766.439 452.916L771.016 452.262C773.36 451.924 775.705 452.69 777.441 454.336L780.778 457.56C783.348 460.04 787.361 460.04 789.931 457.56L793.245 454.336C794.936 452.69 797.326 451.901 799.671 452.262L804.247 452.916C807.764 453.389 811.011 451.044 811.642 447.55L812.431 442.996C812.86 440.651 814.302 438.667 816.399 437.54L820.502 435.376C823.614 433.752 824.854 429.852 823.32 426.696L821.291 422.525C820.254 420.383 820.254 417.903 821.291 415.761L823.32 411.59C824.876 408.389 823.636 404.579 820.502 402.91L818.451 401.828C818.18 401.693 818.067 401.332 818.225 401.062C818.383 400.791 818.721 400.678 818.992 400.836L821.043 401.918C824.718 403.88 826.184 408.344 824.335 412.086L822.306 416.257C821.404 418.083 821.404 420.203 822.306 422.029L824.335 426.2C826.139 429.897 824.673 434.451 821.043 436.368L816.94 438.532C815.137 439.479 813.897 441.192 813.536 443.199L812.747 447.753C812.025 451.856 808.215 454.607 804.089 454.043L799.513 453.389C797.529 453.096 795.477 453.772 794.034 455.17L790.72 458.394C789.187 459.837 787.248 460.559 785.332 460.559ZM1329.53 459.093C1329.21 459.093 1328.96 458.845 1328.96 458.529V372.677C1328.96 372.362 1329.21 372.114 1329.53 372.114C1329.84 372.114 1330.09 372.362 1330.09 372.677V458.529C1330.09 458.845 1329.84 459.093 1329.53 459.093ZM1245.46 453.209H1033.22C1031.98 453.209 1030.96 452.194 1030.96 450.954V280.693C1030.96 279.453 1031.98 278.438 1033.22 278.438H1245.46C1246.7 278.438 1247.71 279.453 1247.71 280.693V450.954C1247.73 452.194 1246.72 453.209 1245.46 453.209ZM1032.09 318.546V450.954C1032.09 451.585 1032.61 452.082 1033.22 452.082H1245.46C1246.09 452.082 1246.58 451.563 1246.58 450.954V318.546H1032.09ZM1032.09 317.419H1246.61V280.67C1246.61 280.039 1246.09 279.543 1245.48 279.543H1033.24C1032.61 279.543 1032.11 280.061 1032.11 280.67V317.419H1032.09ZM568.965 450.594C530.435 450.594 499.075 419.256 499.075 380.703C499.075 342.196 530.39 310.858 568.897 310.813C569.191 310.813 569.484 310.813 569.777 310.813C607.923 311.264 638.833 342.444 638.833 380.681C638.833 419.256 607.495 450.594 568.965 450.594ZM568.199 449.444C568.537 449.466 568.898 449.466 569.236 449.466C581.297 449.466 591.916 436.773 597.981 417.678C588.827 415.581 578.682 414.454 568.447 414.544V448.97C568.447 449.173 568.356 449.331 568.199 449.444ZM540.513 417.678C546.285 435.849 556.182 448.226 567.522 449.376C567.41 449.263 567.342 449.128 567.342 448.97V414.544C557.986 414.679 548.855 415.761 540.513 417.678ZM517.382 335.297C506.695 347.427 500.202 363.321 500.202 380.726C500.202 416.302 527.369 445.656 562.044 449.128C552.552 445.205 544.458 433.685 539.453 417.926C531.427 419.842 524.145 422.547 518.081 425.907C517.81 426.064 517.472 425.952 517.314 425.681C517.156 425.411 517.269 425.072 517.539 424.915C523.672 421.51 531.044 418.782 539.115 416.843C536.027 406.721 534.178 394.929 534.043 382.327H502.863C502.547 382.327 502.299 382.079 502.299 381.763C502.299 381.447 502.547 381.199 502.863 381.199H534.043C534.043 381.041 534.043 380.861 534.043 380.703C534.043 367.063 536.027 354.303 539.453 343.526C531.224 341.587 523.762 338.837 517.539 335.387C517.472 335.387 517.427 335.342 517.382 335.297ZM599.04 417.926C594.058 433.572 586.032 445.047 576.631 449.038C594.126 447.076 609.637 438.554 620.661 425.974C620.571 425.974 620.481 425.952 620.413 425.907C614.349 422.547 607.067 419.842 599.04 417.926ZM599.379 416.843C607.472 418.782 614.822 421.51 620.977 424.915C621.135 425.005 621.225 425.14 621.248 425.298C631.235 413.597 637.367 398.537 637.683 382.056C637.593 382.214 637.413 382.327 637.21 382.327H604.451C604.316 394.952 602.467 406.743 599.379 416.843ZM535.147 382.349C535.283 394.884 537.109 406.585 540.152 416.618C548.607 414.679 557.85 413.574 567.319 413.439V382.349H535.147ZM569.236 413.416C579.359 413.416 589.278 414.521 598.296 416.595C601.34 406.585 603.166 394.862 603.302 382.349H568.424V413.416C568.717 413.416 568.988 413.416 569.236 413.416ZM604.474 381.222H637.21C637.413 381.222 637.615 381.335 637.706 381.515C637.706 381.244 637.706 380.996 637.706 380.726C637.706 363.456 631.303 347.629 620.729 335.545C614.552 338.927 607.157 341.632 599.04 343.549C602.467 354.325 604.451 367.063 604.451 380.726C604.474 380.884 604.474 381.041 604.474 381.222ZM568.447 381.222H603.324C603.324 381.064 603.324 380.884 603.324 380.726C603.324 367.154 601.363 354.483 597.981 343.797C588.805 345.871 578.682 346.976 568.447 346.908V381.222ZM535.147 381.222H567.319V346.908C557.986 346.773 548.855 345.713 540.491 343.797C537.109 354.461 535.147 367.131 535.147 380.726C535.147 380.884 535.147 381.041 535.147 381.222ZM568.447 345.781C578.547 345.826 588.557 344.766 597.643 342.715C591.623 324.453 581.388 312.324 569.754 311.963C569.461 311.963 569.168 311.963 568.897 311.963C568.672 311.963 568.424 311.986 568.199 311.986C568.356 312.098 568.447 312.256 568.447 312.459V345.781ZM540.829 342.715C549.103 344.586 558.098 345.646 567.319 345.758V312.459C567.319 312.301 567.387 312.143 567.5 312.053C556.385 313.18 546.645 325.107 540.829 342.715ZM576.653 312.391C585.829 316.314 593.697 327.361 598.702 342.467C606.661 340.595 613.898 337.958 619.962 334.666C609.006 322.537 593.765 314.308 576.653 312.391ZM518.126 334.463C524.258 337.845 531.653 340.55 539.769 342.467C544.797 327.249 552.733 316.156 562.021 312.301C544.706 314.06 529.263 322.266 518.126 334.463ZM970.811 442.026C965.829 442.026 961.771 437.968 961.771 432.986C961.771 428.003 965.829 423.945 970.811 423.945C975.794 423.945 979.852 428.003 979.852 432.986C979.852 437.968 975.794 442.026 970.811 442.026ZM970.811 425.072C966.46 425.072 962.898 428.612 962.898 432.986C962.898 437.359 966.438 440.899 970.811 440.899C975.185 440.899 978.725 437.359 978.725 432.986C978.725 428.612 975.163 425.072 970.811 425.072ZM1230.24 440.313H1182.29C1181.97 440.313 1181.72 440.065 1181.72 439.749C1181.72 439.434 1181.97 439.186 1182.29 439.186H1230.24C1230.56 439.186 1230.8 439.434 1230.8 439.749C1230.8 440.065 1230.56 440.313 1230.24 440.313ZM1163.42 440.313H1115.46C1115.15 440.313 1114.9 440.065 1114.9 439.749C1114.9 439.434 1115.15 439.186 1115.46 439.186H1163.42C1163.73 439.186 1163.98 439.434 1163.98 439.749C1163.98 440.065 1163.73 440.313 1163.42 440.313ZM1096.59 440.313H1048.64C1048.32 440.313 1048.07 440.065 1048.07 439.749C1048.07 439.434 1048.32 439.186 1048.64 439.186H1096.59C1096.91 439.186 1097.16 439.434 1097.16 439.749C1097.16 440.065 1096.91 440.313 1096.59 440.313ZM778.681 431.836L767.386 420.518C767.16 420.293 767.16 419.932 767.386 419.729C767.611 419.504 767.972 419.504 768.175 419.729L778.703 430.28L802.466 407.645C802.692 407.419 803.052 407.442 803.255 407.667C803.481 407.893 803.458 408.254 803.233 408.457L778.681 431.836ZM1230.24 430.28H1182.29C1181.97 430.28 1181.72 430.032 1181.72 429.717C1181.72 429.401 1181.97 429.153 1182.29 429.153H1230.24C1230.56 429.153 1230.8 429.401 1230.8 429.717C1230.8 430.032 1230.56 430.28 1230.24 430.28ZM1163.42 430.28H1115.46C1115.15 430.28 1114.9 430.032 1114.9 429.717C1114.9 429.401 1115.15 429.153 1115.46 429.153H1163.42C1163.73 429.153 1163.98 429.401 1163.98 429.717C1163.98 430.032 1163.73 430.28 1163.42 430.28ZM1096.59 430.28H1048.64C1048.32 430.28 1048.07 430.032 1048.07 429.717C1048.07 429.401 1048.32 429.153 1048.64 429.153H1096.59C1096.91 429.153 1097.16 429.401 1097.16 429.717C1097.16 430.032 1096.91 430.28 1096.59 430.28ZM1206.77 420.27C1201 420.27 1196.29 415.558 1196.29 409.787C1196.29 403.993 1201 399.303 1206.77 399.303C1212.54 399.303 1217.25 404.015 1217.25 409.787C1217.28 415.558 1212.56 420.27 1206.77 420.27ZM1206.77 400.408C1201.61 400.408 1197.41 404.601 1197.41 409.764C1197.41 414.927 1201.61 419.12 1206.77 419.12C1211.93 419.12 1216.13 414.927 1216.13 409.764C1216.15 404.624 1211.93 400.408 1206.77 400.408ZM1139.95 420.27C1134.15 420.27 1129.46 415.558 1129.46 409.787C1129.46 403.993 1134.17 399.303 1139.95 399.303C1145.72 399.303 1150.43 404.015 1150.43 409.787C1150.43 415.558 1145.72 420.27 1139.95 420.27ZM1139.95 400.408C1134.78 400.408 1130.59 404.601 1130.59 409.764C1130.59 414.927 1134.78 419.12 1139.95 419.12C1145.11 419.12 1149.3 414.927 1149.3 409.764C1149.3 404.624 1145.11 400.408 1139.95 400.408ZM1071.39 420.27C1065.59 420.27 1060.9 415.558 1060.9 409.787C1060.9 403.993 1065.61 399.303 1071.39 399.303C1077.16 399.303 1081.87 404.015 1081.87 409.787C1081.87 415.558 1077.16 420.27 1071.39 420.27ZM1071.39 400.408C1066.22 400.408 1062.03 404.601 1062.03 409.764C1062.03 414.927 1066.22 419.12 1071.39 419.12C1076.55 419.12 1080.74 414.927 1080.74 409.764C1080.74 404.624 1076.55 400.408 1071.39 400.408ZM988.78 396.823H857.386C857.071 396.823 856.823 396.575 856.823 396.26C856.823 395.944 857.071 395.696 857.386 395.696H988.78C989.096 395.696 989.344 395.944 989.344 396.26C989.344 396.575 989.096 396.823 988.78 396.823ZM1229.41 392.201H1049.29C1048.5 392.201 1047.87 391.57 1047.87 390.781V336.785C1047.87 335.996 1048.5 335.365 1049.29 335.365H1229.41C1230.19 335.365 1230.83 335.996 1230.83 336.785V390.781C1230.8 391.548 1230.17 392.201 1229.41 392.201ZM1049.29 336.492C1049.13 336.492 1049 336.627 1049 336.785V390.781C1049 390.939 1049.13 391.074 1049.29 391.074H1229.41C1229.56 391.074 1229.7 390.939 1229.7 390.781V336.785C1229.7 336.627 1229.56 336.492 1229.41 336.492H1049.29ZM832.339 368.101H670.441C668.254 368.101 666.473 366.32 666.473 364.133V242.862C666.473 240.675 668.254 238.894 670.441 238.894H832.339C834.525 238.894 836.307 240.675 836.307 242.862V364.133C836.307 366.32 834.525 368.101 832.339 368.101ZM670.419 240.044C668.863 240.044 667.578 241.306 667.578 242.884V364.155C667.578 365.711 668.841 366.996 670.419 366.996H832.316C833.872 366.996 835.157 365.733 835.157 364.155V242.884C835.157 241.329 833.894 240.044 832.316 240.044H670.419ZM1368.98 362.893H1285.52C1283.33 362.893 1281.55 361.112 1281.55 358.925V220.677C1281.55 218.49 1283.33 216.709 1285.52 216.709H1368.98C1371.17 216.709 1372.95 218.49 1372.95 220.677V358.925C1372.95 361.112 1371.17 362.893 1368.98 362.893ZM1285.52 217.859C1283.96 217.859 1282.68 219.122 1282.68 220.7V358.947C1282.68 360.503 1283.94 361.788 1285.52 361.788H1368.98C1370.54 361.788 1371.82 360.525 1371.82 358.947V220.7C1371.82 219.144 1370.56 217.859 1368.98 217.859H1285.52ZM927.863 362.893C927.547 362.893 927.299 362.645 927.299 362.329V289.801C927.299 289.485 927.547 289.237 927.863 289.237C928.178 289.237 928.426 289.485 928.426 289.801V362.329C928.426 362.645 928.156 362.893 927.863 362.893ZM1327.5 355.092C1322.83 355.092 1319.05 351.304 1319.05 346.66C1319.05 341.993 1322.83 338.206 1327.5 338.206C1332.14 338.206 1335.93 341.993 1335.93 346.66C1335.93 351.304 1332.14 355.092 1327.5 355.092ZM1327.5 339.333C1323.46 339.333 1320.17 342.624 1320.17 346.66C1320.17 350.696 1323.46 353.965 1327.5 353.965C1331.54 353.965 1334.8 350.673 1334.8 346.66C1334.8 342.647 1331.54 339.333 1327.5 339.333ZM804.721 344.902H696.842V256.299H804.721V291.041C804.721 291.357 804.473 291.605 804.157 291.605C803.841 291.605 803.593 291.357 803.593 291.041V257.426H697.969V343.774H803.593V295.257C803.593 294.941 803.841 294.693 804.157 294.693C804.473 294.693 804.721 294.941 804.721 295.257V344.902ZM1356.88 333.426H1297.63C1295.44 333.426 1293.66 331.645 1293.66 329.458V240.134C1293.66 237.947 1295.44 236.166 1297.63 236.166H1356.88C1359.06 236.166 1360.84 237.947 1360.84 240.134V329.458C1360.84 331.645 1359.06 333.426 1356.88 333.426ZM1297.63 237.293C1296.07 237.293 1294.79 238.556 1294.79 240.134V329.458C1294.79 331.014 1296.05 332.299 1297.63 332.299H1356.88C1358.43 332.299 1359.72 331.036 1359.72 329.458V240.134C1359.72 238.578 1358.45 237.293 1356.88 237.293H1297.63ZM790.427 329.052H708.994C708.678 329.052 708.43 328.804 708.43 328.489C708.43 328.173 708.678 327.925 708.994 327.925H790.427C790.743 327.925 790.991 328.173 790.991 328.489C790.991 328.804 790.72 329.052 790.427 329.052ZM1343.19 322.988H1311.31C1306.6 322.988 1302.77 319.155 1302.77 314.443C1302.77 309.731 1306.6 305.898 1311.31 305.898H1343.19C1347.9 305.898 1351.74 309.731 1351.74 314.443C1351.74 319.177 1347.9 322.988 1343.19 322.988ZM1311.31 307.048C1307.23 307.048 1303.89 310.362 1303.89 314.465C1303.89 318.546 1307.21 321.883 1311.31 321.883H1343.19C1347.27 321.883 1350.61 318.569 1350.61 314.465C1350.61 310.385 1347.29 307.048 1343.19 307.048H1311.31ZM789.615 318.591H708.971C708.655 318.591 708.407 318.343 708.407 318.028C708.407 317.712 708.655 317.464 708.971 317.464H789.615C789.931 317.464 790.179 317.712 790.179 318.028C790.179 318.343 789.931 318.591 789.615 318.591ZM790.427 308.153H708.994C708.678 308.153 708.43 307.905 708.43 307.589C708.43 307.273 708.678 307.025 708.994 307.025H790.427C790.743 307.025 790.991 307.273 790.991 307.589C790.991 307.905 790.72 308.153 790.427 308.153ZM1084.39 307.273C1080.43 307.273 1077.18 304.049 1077.18 300.059C1077.18 296.068 1080.4 292.845 1084.39 292.845C1088.36 292.845 1091.61 296.068 1091.61 300.059C1091.61 304.049 1088.36 307.273 1084.39 307.273ZM1084.39 293.972C1081.04 293.972 1078.31 296.7 1078.31 300.059C1078.31 303.418 1081.04 306.146 1084.39 306.146C1087.75 306.146 1090.48 303.418 1090.48 300.059C1090.48 296.7 1087.73 293.972 1084.39 293.972ZM1067.06 307.273C1063.09 307.273 1059.84 304.049 1059.84 300.059C1059.84 296.068 1063.07 292.845 1067.06 292.845C1071.02 292.845 1074.27 296.068 1074.27 300.059C1074.27 304.049 1071.02 307.273 1067.06 307.273ZM1067.06 293.972C1063.7 293.972 1060.97 296.7 1060.97 300.059C1060.97 303.418 1063.7 306.146 1067.06 306.146C1070.42 306.146 1073.14 303.418 1073.14 300.059C1073.14 296.7 1070.42 293.972 1067.06 293.972ZM1049.74 307.273C1045.77 307.273 1042.53 304.049 1042.53 300.059C1042.53 296.068 1045.75 292.845 1049.74 292.845C1053.73 292.845 1056.96 296.068 1056.96 300.059C1056.96 304.049 1053.73 307.273 1049.74 307.273ZM1049.74 293.972C1046.38 293.972 1043.66 296.7 1043.66 300.059C1043.66 303.418 1046.38 306.146 1049.74 306.146C1053.1 306.146 1055.83 303.418 1055.83 300.059C1055.83 296.7 1053.1 293.972 1049.74 293.972ZM770.565 297.692H708.994C708.678 297.692 708.43 297.444 708.43 297.128C708.43 296.813 708.678 296.565 708.994 296.565H770.565C770.88 296.565 771.128 296.813 771.128 297.128C771.128 297.444 770.88 297.692 770.565 297.692ZM729.758 287.231H708.43V265.903H729.758V287.231ZM709.557 286.103H728.631V267.03H709.557V286.103ZM996.491 285.45H868.681C866.495 285.45 864.714 283.669 864.714 281.482V114.692C864.714 112.505 866.495 110.724 868.681 110.724H936.565C936.881 110.724 937.129 110.972 937.129 111.288C937.129 111.603 936.881 111.851 936.565 111.851H868.681C867.126 111.851 865.841 113.114 865.841 114.692V281.482C865.841 283.037 867.103 284.322 868.681 284.322H996.491C998.046 284.322 999.331 283.06 999.331 281.482V114.692C999.331 113.136 998.069 111.851 996.491 111.851H988.555C988.239 111.851 987.991 111.603 987.991 111.288C987.991 110.972 988.239 110.724 988.555 110.724H996.491C998.677 110.724 1000.46 112.505 1000.46 114.692V281.482C1000.46 283.669 998.677 285.45 996.491 285.45ZM1094.52 273.298C1094.2 273.298 1093.95 273.05 1093.95 272.734V249.152C1093.95 248.836 1094.2 248.588 1094.52 248.588C1094.83 248.588 1095.08 248.836 1095.08 249.152V272.734C1095.08 273.05 1094.83 273.298 1094.52 273.298ZM980.799 262.679H883.381C883.065 262.679 882.817 262.431 882.817 262.115C882.817 261.8 883.065 261.552 883.381 261.552H980.799C981.115 261.552 981.363 261.8 981.363 262.115C981.363 262.431 981.115 262.679 980.799 262.679ZM980.799 243.651H883.381C883.065 243.651 882.817 243.403 882.817 243.087C882.817 242.772 883.065 242.524 883.381 242.524H980.799C981.115 242.524 981.363 242.772 981.363 243.087C981.363 243.403 981.115 243.651 980.799 243.651ZM1158.86 240.923H1030.15C1028.44 240.923 1027.04 239.525 1027.04 237.812V166.411C1027.04 165.87 1027.33 165.396 1027.81 165.148C1028.28 164.9 1028.84 164.945 1029.27 165.261L1057.29 185.123H1123.4C1123.71 185.123 1123.96 185.371 1123.96 185.687C1123.96 186.003 1123.71 186.251 1123.4 186.251H1058.87L1090.89 208.954C1093.05 210.487 1095.94 210.487 1098.1 208.954L1159.72 165.261C1160.15 164.945 1160.71 164.923 1161.18 165.171C1161.66 165.419 1161.95 165.892 1161.95 166.433V237.834C1161.97 239.525 1160.57 240.923 1158.86 240.923ZM1028.46 166.118C1028.39 166.118 1028.35 166.14 1028.32 166.163C1028.28 166.185 1028.17 166.253 1028.17 166.411V237.812C1028.17 238.916 1029.07 239.796 1030.15 239.796H1158.86C1159.97 239.796 1160.85 238.894 1160.85 237.812V166.411C1160.85 166.253 1160.73 166.185 1160.69 166.163C1160.64 166.14 1160.51 166.095 1160.39 166.185L1098.78 209.878C1096.23 211.682 1092.8 211.682 1090.26 209.878L1056.93 186.273H1055.63C1055.31 186.273 1055.06 186.025 1055.06 185.71C1055.06 185.484 1055.2 185.281 1055.42 185.191L1028.64 166.208C1028.57 166.118 1028.5 166.118 1028.46 166.118ZM1154.13 234.407C1153.97 234.407 1153.83 234.34 1153.72 234.227L1123.24 202.258C1123.01 202.032 1123.04 201.672 1123.26 201.469C1123.49 201.243 1123.85 201.266 1124.05 201.491L1154.53 233.46C1154.76 233.686 1154.74 234.047 1154.51 234.249C1154.42 234.362 1154.26 234.407 1154.13 234.407ZM1032.77 234.407C1032.63 234.407 1032.5 234.362 1032.38 234.249C1032.16 234.024 1032.16 233.686 1032.36 233.46L1062.84 201.491C1063.04 201.266 1063.4 201.266 1063.63 201.469C1063.86 201.694 1063.86 202.032 1063.65 202.258L1033.17 234.227C1033.08 234.34 1032.92 234.407 1032.77 234.407ZM832.925 233.46H669.923C667.736 233.46 665.955 231.679 665.955 229.492V210.893C665.955 208.706 667.736 206.925 669.923 206.925H832.925C835.112 206.925 836.893 208.706 836.893 210.893V229.492C836.87 231.679 835.112 233.46 832.925 233.46ZM669.9 208.052C668.345 208.052 667.059 209.314 667.059 210.893V229.492C667.059 231.048 668.322 232.333 669.9 232.333H832.902C834.458 232.333 835.743 231.071 835.743 229.492V210.893C835.743 209.337 834.48 208.052 832.902 208.052H669.9ZM980.799 224.6H883.381C883.065 224.6 882.817 224.352 882.817 224.037C882.817 223.721 883.065 223.473 883.381 223.473H980.799C981.115 223.473 981.363 223.721 981.363 224.037C981.363 224.352 981.115 224.6 980.799 224.6ZM980.799 205.572H883.381C883.065 205.572 882.817 205.324 882.817 205.008C882.817 204.693 883.065 204.445 883.381 204.445H980.799C981.115 204.445 981.363 204.693 981.363 205.008C981.363 205.324 981.115 205.572 980.799 205.572ZM980.799 186.544H883.381C883.065 186.544 882.817 186.296 882.817 185.98C882.817 185.664 883.065 185.416 883.381 185.416H980.799C981.115 185.416 981.363 185.664 981.363 185.98C981.363 186.296 981.115 186.544 980.799 186.544ZM1344.7 185.326C1343.33 185.326 1342.24 184.379 1342.06 183.027L1341.66 180.209C1340.4 171.213 1333.52 164.224 1324.52 162.826L1321.84 162.398C1320.51 162.195 1319.59 161.113 1319.59 159.76C1319.59 158.407 1320.51 157.325 1321.84 157.122L1324.52 156.716C1333.52 155.319 1340.4 148.33 1341.66 139.334L1342.06 136.516C1342.24 135.163 1343.35 134.216 1344.7 134.216C1346.05 134.216 1347.16 135.163 1347.34 136.516L1347.75 139.334C1349.01 148.33 1355.88 155.319 1364.88 156.716L1367.56 157.122C1368.89 157.325 1369.82 158.407 1369.82 159.76C1369.82 161.113 1368.89 162.195 1367.56 162.398L1364.88 162.826C1355.91 164.224 1349.01 171.19 1347.77 180.209L1347.36 183.027C1347.14 184.379 1346.05 185.304 1344.7 185.326ZM1343.17 136.674L1342.76 139.492C1341.43 148.983 1334.17 156.356 1324.68 157.821L1322 158.227C1321.03 158.385 1320.69 159.129 1320.69 159.738C1320.69 160.346 1321.03 161.113 1322 161.248L1324.68 161.676C1334.17 163.142 1341.43 170.514 1342.76 180.006L1343.17 182.824C1343.3 183.793 1344.07 184.154 1344.7 184.154C1345.31 184.154 1346.08 183.816 1346.21 182.824L1346.62 180.006C1347.95 170.514 1355.21 163.142 1364.68 161.676L1367.36 161.248C1368.33 161.09 1368.67 160.346 1368.67 159.738C1368.67 159.129 1368.33 158.362 1367.36 158.227L1364.68 157.821C1355.19 156.356 1347.93 148.983 1346.62 139.492L1346.21 136.674C1346.08 135.704 1345.31 135.344 1344.68 135.344C1344.07 135.344 1343.3 135.682 1343.17 136.674ZM769.798 180.457H728.27C722.543 180.457 717.876 175.79 717.876 170.063C717.876 164.337 722.543 159.67 728.27 159.67H769.798C775.525 159.67 780.191 164.337 780.191 170.063C780.191 175.79 775.525 180.457 769.798 180.457ZM728.27 160.797C723.175 160.797 719.004 164.945 719.004 170.063C719.004 175.181 723.152 179.329 728.27 179.329H769.798C774.893 179.329 779.064 175.181 779.064 170.063C779.064 164.945 774.916 160.797 769.798 160.797H728.27ZM700.314 180.457C694.159 180.457 689.176 175.452 689.176 169.319C689.176 163.164 694.181 158.182 700.314 158.182C706.446 158.182 711.451 163.187 711.451 169.319C711.474 175.452 706.469 180.457 700.314 180.457ZM700.314 159.287C694.79 159.287 690.304 163.773 690.304 169.297C690.304 174.82 694.79 179.307 700.314 179.307C705.837 179.307 710.324 174.82 710.324 169.297C710.324 163.773 705.837 159.287 700.314 159.287ZM771.805 173.49H726.353C726.038 173.49 725.79 173.242 725.79 172.926C725.79 172.611 726.038 172.363 726.353 172.363H771.805C772.12 172.363 772.368 172.611 772.368 172.926C772.368 173.242 772.12 173.49 771.805 173.49ZM1146.46 170.514H1042.51C1042.19 170.514 1041.94 170.266 1041.94 169.95C1041.94 169.635 1042.19 169.387 1042.51 169.387H1146.46C1146.78 169.387 1147.03 169.635 1147.03 169.95C1147.03 170.266 1146.78 170.514 1146.46 170.514ZM771.805 168.012H726.353C726.038 168.012 725.79 167.764 725.79 167.448C725.79 167.132 726.038 166.884 726.353 166.884H771.805C772.12 166.884 772.368 167.132 772.368 167.448C772.368 167.764 772.12 168.012 771.805 168.012ZM1259.46 167.809C1220.93 167.809 1189.57 136.471 1189.57 97.9185C1189.57 59.3661 1220.91 28.0282 1259.46 28.0282C1259.64 28.0282 1259.82 28.0282 1260 28.0282C1260.2 28.0282 1260.4 28.0282 1260.63 28.0282C1298.64 28.6369 1329.35 59.7494 1329.35 97.8959C1329.35 136.088 1298.53 167.223 1260.47 167.764C1260.29 167.764 1260.11 167.764 1259.93 167.764C1259.77 167.809 1259.62 167.809 1259.46 167.809ZM1231.34 136.178C1237.52 154.53 1248.03 166.636 1259.93 166.704C1260.11 166.704 1260.29 166.704 1260.47 166.704C1260.68 166.704 1260.88 166.681 1261.06 166.681C1260.9 166.591 1260.81 166.411 1260.81 166.208V133.179C1250.62 133.066 1240.5 134.126 1231.34 136.178ZM1261.94 133.179V166.208C1261.94 166.366 1261.87 166.524 1261.76 166.614C1272.92 165.509 1282.7 153.763 1288.61 136.381C1280.31 134.442 1271.23 133.337 1261.94 133.179ZM1208.75 144.294C1219.91 156.491 1235.4 164.675 1252.76 166.366C1243.41 162.556 1235.38 151.531 1230.26 136.403C1222.21 138.297 1214.86 140.957 1208.75 144.294ZM1289.67 136.606C1284.62 151.418 1276.77 162.285 1267.62 166.208C1284.42 164.224 1299.39 156.13 1310.23 144.249C1304.35 141.047 1297.36 138.477 1289.67 136.606ZM1190.74 99.2937C1191.08 116.203 1197.53 131.624 1207.99 143.437C1214.23 140.01 1221.69 137.26 1229.92 135.344C1226.54 124.95 1224.54 112.708 1224.38 99.5642H1191.21C1191.01 99.5642 1190.83 99.4515 1190.74 99.2937ZM1290.03 135.546C1297.88 137.463 1305.02 140.101 1311.02 143.392C1321.73 131.263 1328.22 115.346 1328.22 97.941C1328.22 80.5136 1321.71 64.5966 1311 52.4672C1305 55.7589 1297.85 58.3967 1290.03 60.2905C1293.59 71.1573 1295.64 84.0757 1295.64 97.9185C1295.64 98.0763 1295.64 98.2566 1295.64 98.4145H1327.21C1327.52 98.4145 1327.77 98.6624 1327.77 98.9781C1327.77 99.2937 1327.52 99.5417 1327.21 99.5417H1295.62C1295.49 112.776 1293.43 125.108 1290.03 135.546ZM1261.94 132.052C1271.36 132.21 1280.56 133.337 1288.97 135.298C1292.35 124.973 1294.36 112.708 1294.52 99.5642H1261.94V132.052ZM1225.5 99.5642C1225.66 112.618 1227.65 124.792 1230.98 135.095C1240.25 132.999 1250.44 131.939 1260.81 132.029V99.5642H1225.5ZM1207.99 52.4222C1197.23 64.5515 1190.72 80.5136 1190.72 97.941C1190.72 98.2116 1190.72 98.4596 1190.72 98.7301C1190.81 98.5497 1190.99 98.437 1191.21 98.437H1224.38C1224.38 98.2792 1224.38 98.0988 1224.38 97.941C1224.38 84.1884 1226.41 71.3376 1229.92 60.5159C1221.69 58.577 1214.23 55.849 1207.99 52.4222ZM1261.94 98.437H1294.52C1294.52 98.2792 1294.52 98.0988 1294.52 97.941C1294.52 84.1659 1292.46 71.3376 1288.95 60.561C1280.54 62.5224 1271.34 63.6497 1261.92 63.8075V98.437H1261.94ZM1225.5 98.437H1260.81V63.8075C1250.46 63.8752 1240.27 62.8155 1231.01 60.7414C1227.53 71.4729 1225.5 84.2335 1225.5 97.9185C1225.5 98.0989 1225.5 98.2792 1225.5 98.437ZM1231.34 59.6817C1240.5 61.7334 1250.6 62.793 1260.81 62.7028V29.6966C1260.81 29.4937 1260.9 29.3359 1261.06 29.2232C1260.9 29.2232 1260.77 29.2006 1260.61 29.2006C1260.34 29.2006 1260.04 29.2006 1259.77 29.2006C1247.94 29.3358 1237.5 41.4201 1231.34 59.6817ZM1261.76 29.2682C1261.87 29.3809 1261.94 29.5162 1261.94 29.674V62.6577C1271.25 62.4999 1280.31 61.3952 1288.61 59.4563C1282.7 42.119 1272.92 30.3729 1261.76 29.2682ZM1208.75 51.5429C1214.89 54.8796 1222.21 57.5399 1230.26 59.4337C1235.38 44.3284 1243.38 33.3038 1252.74 29.5162C1235.4 31.2071 1219.91 39.3685 1208.75 51.5429ZM1267.62 29.674C1276.77 33.5969 1284.62 44.4412 1289.65 59.2308C1297.31 57.3596 1304.32 54.7894 1310.21 51.6106C1299.36 39.7292 1284.42 31.658 1267.62 29.674ZM980.799 167.516H883.381C883.065 167.516 882.817 167.268 882.817 166.952C882.817 166.636 883.065 166.388 883.381 166.388H980.799C981.115 166.388 981.363 166.636 981.363 166.952C981.363 167.268 981.115 167.516 980.799 167.516ZM1161.16 158.52C1160.85 158.52 1160.6 158.272 1160.6 157.956V108.334C1160.6 107.23 1159.7 106.35 1158.61 106.35H1030.42C1029.32 106.35 1028.44 107.252 1028.44 108.334V157.956C1028.44 158.272 1028.19 158.52 1027.87 158.52C1027.56 158.52 1027.31 158.272 1027.31 157.956V108.334C1027.31 106.621 1028.71 105.223 1030.42 105.223H1158.61C1160.33 105.223 1161.72 106.621 1161.72 108.334V157.956C1161.72 158.272 1161.48 158.52 1161.16 158.52ZM801.835 155.251H760.284C754.558 155.251 749.891 150.584 749.891 144.858C749.891 139.131 754.558 134.464 760.284 134.464H801.835C807.561 134.464 812.228 139.131 812.228 144.858C812.228 150.584 807.561 155.251 801.835 155.251ZM760.307 135.614C755.211 135.614 751.04 139.762 751.04 144.88C751.04 149.998 755.189 154.146 760.307 154.146H801.857C806.953 154.146 811.124 149.998 811.124 144.88C811.124 139.762 806.975 135.614 801.857 135.614H760.307ZM1146.46 154.778H1042.51C1042.19 154.778 1041.94 154.53 1041.94 154.214C1041.94 153.898 1042.19 153.65 1042.51 153.65H1146.46C1146.78 153.65 1147.03 153.898 1147.03 154.214C1147.03 154.53 1146.78 154.778 1146.46 154.778ZM936.543 148.487H883.404C883.088 148.487 882.84 148.239 882.84 147.924C882.84 147.608 883.088 147.36 883.404 147.36H936.543C936.858 147.36 937.106 147.608 937.106 147.924C937.106 148.239 936.858 148.487 936.543 148.487ZM803.503 148.42H758.052C757.736 148.42 757.488 148.172 757.488 147.856C757.488 147.54 757.736 147.292 758.052 147.292H803.503C803.819 147.292 804.067 147.54 804.067 147.856C804.067 148.172 803.819 148.42 803.503 148.42ZM962.357 143.167C961.793 143.167 961.297 142.874 961.004 142.4C959.9 140.597 958.479 138.41 956.991 136.088C950.07 125.401 940.578 110.769 940.578 101.503C940.578 89.5091 950.34 79.747 962.312 79.747C974.306 79.747 984.068 89.5091 984.068 101.503C984.068 111.265 974.171 126.348 966.956 137.373C965.761 139.176 964.657 140.89 963.665 142.423C963.394 142.896 962.898 143.167 962.357 143.167ZM962.334 80.9193C950.972 80.9193 941.728 90.1629 941.728 101.548C941.728 110.476 951.107 124.95 957.961 135.524C959.471 137.846 960.869 140.033 961.996 141.859C962.109 142.062 962.38 142.085 962.38 142.062C962.447 142.062 962.628 142.039 962.763 141.859C963.755 140.326 964.86 138.613 966.054 136.786C973.201 125.897 982.986 110.972 982.986 101.548C982.963 90.1629 973.697 80.9193 962.334 80.9193ZM803.503 142.941H758.052C757.736 142.941 757.488 142.693 757.488 142.378C757.488 142.062 757.736 141.814 758.052 141.814H803.503C803.819 141.814 804.067 142.062 804.067 142.378C804.067 142.693 803.819 142.941 803.503 142.941ZM1146.46 139.064H1042.51C1042.19 139.064 1041.94 138.815 1041.94 138.5C1041.94 138.184 1042.19 137.936 1042.51 137.936H1146.46C1146.78 137.936 1147.03 138.184 1147.03 138.5C1147.03 138.815 1146.78 139.064 1146.46 139.064ZM1137.24 87.4147C1134.94 87.4147 1133.07 85.5435 1133.07 83.2439C1133.07 80.9443 1134.94 79.073 1137.24 79.073C1139.54 79.073 1141.41 80.9443 1141.41 83.2439C1141.41 85.5435 1139.54 87.4147 1137.24 87.4147ZM1137.24 80.1778C1135.55 80.1778 1134.2 81.553 1134.2 83.2213C1134.2 84.8897 1135.57 86.2649 1137.24 86.2649C1138.91 86.2649 1140.28 84.8897 1140.28 83.2213C1140.28 81.553 1138.91 80.1778 1137.24 80.1778ZM1111.83 87.4147C1109.53 87.4147 1107.66 85.5435 1107.66 83.2439C1107.66 80.9443 1109.53 79.073 1111.83 79.073C1114.13 79.073 1116 80.9443 1116 83.2439C1116 85.5435 1114.13 87.4147 1111.83 87.4147ZM1111.83 80.1778C1110.14 80.1778 1108.79 81.553 1108.79 83.2213C1108.79 84.8897 1110.16 86.2649 1111.83 86.2649C1113.5 86.2649 1114.88 84.8897 1114.88 83.2213C1114.88 81.553 1113.52 80.1778 1111.83 80.1778ZM1140.64 75.105H1107.71L1105.63 55.9642H1146.64C1146.96 55.9642 1147.21 56.2121 1147.21 56.5278C1147.21 56.8434 1146.96 57.0914 1146.64 57.0914H1106.89L1108.72 73.9778H1140.64C1140.96 73.9778 1141.21 74.2258 1141.21 74.5414C1141.21 74.8571 1140.96 75.105 1140.64 75.105ZM1148.08 52.0187H1104.69C1104.1 52.0187 1103.6 51.6129 1103.47 51.0493L1099.39 32.4044C1099.3 32.0436 1099.39 31.6604 1099.64 31.3673C1099.88 31.0742 1100.22 30.8938 1100.6 30.8938H1152.17C1152.55 30.8938 1152.91 31.0742 1153.13 31.3673C1153.36 31.6604 1153.45 32.0436 1153.38 32.4044L1149.3 51.0493C1149.17 51.6129 1148.65 52.0187 1148.08 52.0187ZM1100.58 31.9986L1100.47 32.1338L1104.55 50.7787C1104.57 50.8238 1104.62 50.8689 1104.66 50.8689H1148.06C1148.11 50.8689 1148.15 50.8238 1148.17 50.7787L1152.26 32.1338L1152.14 31.9986H1100.58ZM1104.44 27.7375C1104.3 27.7375 1104.14 27.6924 1104.03 27.5797L1094.65 18.2234C1094.43 17.998 1094.43 17.6373 1094.65 17.4343C1094.88 17.2314 1095.24 17.2089 1095.44 17.4343L1104.82 26.7906C1105.05 27.0161 1105.05 27.3768 1104.82 27.5797C1104.73 27.6924 1104.57 27.7375 1104.44 27.7375ZM788.412 99.1323C786.495 99.1323 784.556 98.4109 783.046 96.968L779.709 93.744C778.221 92.3237 776.237 91.6699 774.231 91.963L769.654 92.6168C765.528 93.1804 761.718 90.4299 760.997 86.3267L760.185 81.7951C759.824 79.7886 758.584 78.0976 756.781 77.1282L752.677 74.9639C749.003 73.0024 747.537 68.5385 749.386 64.796L751.415 60.6251C752.294 58.8215 752.294 56.6572 751.415 54.8535L749.386 50.6601C747.582 46.9627 749.048 42.4086 752.7 40.4922L756.803 38.3279C758.607 37.381 759.847 35.6675 760.208 33.661L760.997 29.1069C761.718 24.9811 765.528 22.2306 769.654 22.7942L774.231 23.448C776.237 23.7411 778.266 23.0648 779.709 21.667L783.023 18.443C786.022 15.5346 790.734 15.5346 793.732 18.443L797.069 21.667C798.557 23.0873 800.541 23.7411 802.547 23.448L807.124 22.7942C811.227 22.2306 815.06 24.9811 815.782 29.0843L816.435 32.7141C816.48 33.0297 816.278 33.3228 815.984 33.3679C815.691 33.413 815.376 33.2101 815.331 32.917L814.677 29.2873C814.046 25.7927 810.799 23.4255 807.282 23.9215L802.705 24.5527C800.361 24.8909 798.016 24.1244 796.28 22.4786L792.943 19.2546C790.373 16.7746 786.36 16.7746 783.812 19.2546L780.498 22.4786C778.807 24.1244 776.395 24.8909 774.073 24.5527L769.496 23.8989C765.979 23.4255 762.733 25.7702 762.101 29.2873L761.312 33.8414C760.884 36.1861 759.441 38.1926 757.344 39.2973L753.241 41.4617C750.13 43.0849 748.867 46.9852 750.423 50.1416L752.452 54.335C753.489 56.4542 753.489 58.9793 752.452 61.0986L750.423 65.2694C748.867 68.4709 750.107 72.281 753.241 73.9494L757.344 76.1137C759.464 77.241 760.906 79.2249 761.312 81.5696L762.124 86.1012C762.755 89.5958 766.002 91.963 769.519 91.467L774.095 90.8132C776.44 90.475 778.785 91.2415 780.521 92.8874L783.858 96.1113C786.428 98.5913 790.441 98.5913 792.988 96.1113L796.302 92.8874C797.993 91.2415 800.406 90.475 802.728 90.8132L807.305 91.467C810.822 91.9405 814.068 89.5958 814.699 86.1012L815.488 81.5471C815.917 79.2024 817.36 77.1959 819.456 76.0911L823.56 73.9268C826.671 72.3035 827.933 68.4032 826.378 65.2469L824.349 61.076C823.312 58.9568 823.312 56.4317 824.349 54.3125L826.378 50.1416C827.933 46.9401 826.716 43.13 823.56 41.4617L821.508 40.3795C821.237 40.2442 821.125 39.8835 821.283 39.613C821.418 39.3424 821.779 39.2297 822.049 39.3875L824.101 40.4697C827.776 42.4311 829.241 46.8951 827.392 50.6376L825.363 54.8084C824.484 56.6121 824.484 58.7764 825.363 60.58L827.392 64.7509C829.196 68.4483 827.731 73.0025 824.078 74.9188L819.975 77.0832C818.171 78.0301 816.931 79.7435 816.571 81.75L815.782 86.3041C815.06 90.4074 811.227 93.1579 807.124 92.5942L802.547 91.9404C800.563 91.6699 798.512 92.3237 797.069 93.7215L793.755 96.9455C792.267 98.4109 790.351 99.1323 788.412 99.1323ZM781.783 70.4098L770.488 59.092C770.263 58.8666 770.263 58.5059 770.488 58.303C770.714 58.0775 771.074 58.0775 771.277 58.303L781.806 68.8541L805.569 46.2187C805.794 46.0158 806.155 46.0158 806.358 46.2412C806.583 46.4667 806.561 46.8274 806.335 47.0303L781.783 70.4098ZM1009.13 67.5916C1007.78 67.5916 1006.68 66.6447 1006.49 65.292L1006.09 62.4738C1004.83 53.4783 997.95 46.4893 988.955 45.0915L986.272 44.6631C984.941 44.4602 984.017 43.378 984.017 42.0253C984.017 40.6726 984.941 39.5904 986.272 39.3875L988.955 38.9591C997.928 37.5613 1004.83 30.5949 1006.09 21.5768L1006.49 18.7586C1006.68 17.4059 1007.78 16.459 1009.13 16.459C1010.51 16.459 1011.59 17.4059 1011.77 18.7586L1012.18 21.5768C1013.44 30.5723 1020.31 37.5613 1029.31 38.9591L1031.99 39.3875C1033.32 39.5904 1034.25 40.6726 1034.25 42.0253C1034.25 43.378 1033.32 44.4602 1031.99 44.6631L1029.31 45.0915C1020.34 46.4893 1013.44 53.4783 1012.18 62.4738L1011.77 65.292C1011.57 66.6672 1010.49 67.5916 1009.13 67.5916ZM1009.13 17.6314C1008.52 17.6314 1007.76 17.9695 1007.6 18.9615L1007.19 21.7797C1005.86 31.2712 998.604 38.6435 989.112 40.1089L986.429 40.5373C985.46 40.6951 985.122 41.4391 985.122 42.0478C985.122 42.6566 985.46 43.4231 986.429 43.5584L989.112 43.9867C998.581 45.4522 1005.84 52.8244 1007.19 62.316L1007.6 65.1341C1007.73 66.1036 1008.5 66.4643 1009.13 66.4643C1009.74 66.4643 1010.53 66.1261 1010.67 65.1341L1011.07 62.316C1012.4 52.8244 1019.66 45.4522 1029.15 43.9867L1031.84 43.5584C1032.81 43.4005 1033.14 42.6566 1033.14 42.0478C1033.14 41.4391 1032.81 40.6726 1031.84 40.5373L1029.15 40.1089C1019.68 38.6435 1012.42 31.2712 1011.07 21.7797L1010.67 18.9615C1010.51 17.9695 1009.74 17.6314 1009.13 17.6314Z" fill="url(#paint0_linear_4546_422148)"></path></g><defs><linearGradient id="paint0_linear_4546_422148" x1="642.982" y1="290.323" x2="1501.07" y2="35.6928" gradientUnits="userSpaceOnUse"><stop stop-color="#3843D0"></stop><stop offset="0.390481" stop-color="#737DFF"></stop><stop offset="1" stop-color="#3843D0"></stop></linearGradient></defs></svg>