<svg width="323" height="388" viewBox="0 0 323 388" fill="none" xmlns="http://www.w3.org/2000/svg">
<path opacity="0.5" fill-rule="evenodd" clip-rule="evenodd" d="M2.72486 197.528C10.4801 238.588 51.209 256.122 73.6401 289.187C94.7979 320.375 97.571 372.347 130.009 385.153C162.431 397.953 193.677 364.33 225.288 349.056C253.762 335.297 286.945 329.224 305.24 300.483C323.581 271.671 323.012 233.277 321.745 197.528C320.526 163.127 311.456 131.33 298.153 100.529C282.239 63.6834 271.38 15.2161 237.509 2.4989C203.638 -10.2184 172.846 29.1659 138.644 40.6405C102.737 52.6874 58.946 40.7391 32.4828 71.2849C5.12006 102.869 -5.52559 153.847 2.72486 197.528Z" fill="url(#paint0_linear_1_542)"/>
<defs>
<linearGradient id="paint0_linear_1_542" x1="322.409" y1="-2.9823e-06" x2="-48.6746" y2="333.702" gradientUnits="userSpaceOnUse">
<stop stop-color="#6676A9"/>
<stop offset="1" stop-color="#2F3045"/>
</linearGradient>
</defs>
</svg>
