<svg width="57" height="16" viewBox="0 0 57 16" fill="none" xmlns="http://www.w3.org/2000/svg">
<path d="M56.7071 8.70711C57.0976 8.31659 57.0976 7.68342 56.7071 7.2929L50.3431 0.928937C49.9526 0.538412 49.3195 0.538412 48.9289 0.928936C48.5384 1.31946 48.5384 1.95263 48.9289 2.34315L54.5858 8L48.9289 13.6569C48.5384 14.0474 48.5384 14.6805 48.9289 15.0711C49.3195 15.4616 49.9526 15.4616 50.3431 15.0711L56.7071 8.70711ZM-8.74228e-08 9L2 9L2 7L8.74228e-08 7L-8.74228e-08 9ZM6 9L10 9L10 7L6 7L6 9ZM14 9L18 9L18 7L14 7L14 9ZM22 9L26 9L26 7L22 7L22 9ZM30 9L34 9L34 7L30 7L30 9ZM38 9L42 9L42 7L38 7L38 9ZM46 9L50 9L50 7L46 7L46 9ZM54 9L56 9L56 7L54 7L54 9Z" fill="#6676A9"/>
</svg>
