<svg width="50" height="54" viewBox="0 0 50 54" fill="none" xmlns="http://www.w3.org/2000/svg">
<g filter="url(#filter0_d_1_589)">
<rect x="7" y="6" width="36" height="37" rx="18" fill="white"/>
<path d="M24.9998 4.16797C13.5415 4.16797 4.1665 13.543 4.1665 25.0013C4.1665 36.4596 13.5415 45.8346 24.9998 45.8346C36.4582 45.8346 45.8332 36.4596 45.8332 25.0013C45.8332 13.543 36.4582 4.16797 24.9998 4.16797ZM24.9998 41.668C15.8123 41.668 8.33317 34.1888 8.33317 25.0013C8.33317 15.8138 15.8123 8.33464 24.9998 8.33464C34.1873 8.33464 41.6665 15.8138 41.6665 25.0013C41.6665 34.1888 34.1873 41.668 24.9998 41.668ZM26.0415 14.5846H22.9165V27.0846L33.7498 33.7513L35.4165 31.043L26.0415 25.418V14.5846Z" fill="#252525"/>
</g>
<defs>
<filter id="filter0_d_1_589" x="-4" y="0" width="58" height="58" filterUnits="userSpaceOnUse" color-interpolation-filters="sRGB">
<feFlood flood-opacity="0" result="BackgroundImageFix"/>
<feColorMatrix in="SourceAlpha" type="matrix" values="0 0 0 0 0 0 0 0 0 0 0 0 0 0 0 0 0 0 127 0" result="hardAlpha"/>
<feOffset dy="4"/>
<feGaussianBlur stdDeviation="2"/>
<feComposite in2="hardAlpha" operator="out"/>
<feColorMatrix type="matrix" values="0 0 0 0 0 0 0 0 0 0 0 0 0 0 0 0 0 0 0.25 0"/>
<feBlend mode="normal" in2="BackgroundImageFix" result="effect1_dropShadow_1_589"/>
<feBlend mode="normal" in="SourceGraphic" in2="effect1_dropShadow_1_589" result="shape"/>
</filter>
</defs>
</svg>
