<svg width="50" height="50" viewBox="0 0 50 50" fill="none" xmlns="http://www.w3.org/2000/svg">
<rect x="4" y="10" width="42" height="30" fill="white"/>
<path d="M5.46875 6.25H44.5312C47.55 6.25 50 8.7 50 11.7188V38.2812C50 39.7317 49.4238 41.1227 48.3982 42.1482C47.3727 43.1738 45.9817 43.75 44.5312 43.75H5.46875C4.01835 43.75 2.62735 43.1738 1.60176 42.1482C0.57617 41.1227 0 39.7317 0 38.2812L0 11.7188C0 8.7 2.45 6.25 5.46875 6.25ZM4.6875 38.2844C4.6875 38.7156 5.0375 39.0656 5.46875 39.0656H44.5312C44.7384 39.0656 44.9372 38.9833 45.0837 38.8368C45.2302 38.6903 45.3125 38.4916 45.3125 38.2844V18.1531L26.1875 29.3656C25.8275 29.5772 25.4175 29.6887 25 29.6887C24.5825 29.6887 24.1725 29.5772 23.8125 29.3656L4.6875 18.1531V38.2844ZM45.3125 12.7188V11.7188C45.3125 11.5115 45.2302 11.3128 45.0837 11.1663C44.9372 11.0198 44.7384 10.9375 44.5312 10.9375H5.46875C5.26155 10.9375 5.06284 11.0198 4.91632 11.1663C4.76981 11.3128 4.6875 11.5115 4.6875 11.7188V12.7188L25 24.625L45.3125 12.7188Z" fill="#252525"/>
</svg>
