<svg width="1920" height="798" viewBox="0 0 1920 798" fill="none" xmlns="http://www.w3.org/2000/svg">
<rect width="1920" height="798" fill="#1E1E1E"/>
<g clip-path="url(#clip0_0_1)">
<rect width="1920" height="4491" fill="white"/>
<rect width="1920" height="798" fill="#6676A9"/>
<path opacity="0.5" fill-rule="evenodd" clip-rule="evenodd" d="M1665.46 -175.31C1733.65 -161.747 1768.44 -89.3302 1825.77 -49.9961C1885.58 -8.95956 1986.57 -9.93651 2007.66 59.4657C2028.83 129.122 1956.01 190.691 1917.74 252.622C1888.96 299.19 1857.8 342.259 1813.25 374.068C1769.03 405.639 1719.19 424.675 1665.46 432.738C1603.23 442.078 1535.92 455.455 1481.5 423.853C1425.08 391.093 1391.14 328.156 1376.06 264.685C1361.7 204.281 1389.16 145.656 1400.89 84.6886C1414.79 12.5002 1398.56 -73.015 1450.99 -124.543C1504.7 -177.328 1591.6 -190.002 1665.46 -175.31Z" fill="url(#paint0_linear_0_1)"/>
<g opacity="0.5">
<path fill-rule="evenodd" clip-rule="evenodd" d="M1181.42 115.7C1181.71 115.975 1182 116.25 1182.3 116.523L909.274 400.079C908.9 399.889 908.526 399.698 908.154 399.506L1181.42 115.7ZM913.936 402.367C913.636 402.225 913.336 402.081 913.037 401.937L1185.24 119.236C1185.47 119.449 1185.7 119.66 1185.94 119.872L913.936 402.367ZM1248.71 161.675L1248.43 161.503C1248.22 161.38 1248.02 161.257 1247.82 161.135L984.458 434.653C984.754 434.835 985.05 435.017 985.346 435.2L1248.71 161.675ZM988.811 437.368C989.083 437.54 989.354 437.713 989.625 437.885L1253.03 164.319C1252.76 164.149 1252.48 163.98 1252.21 163.81L988.811 437.368ZM1121.93 63.3597C1122.23 63.5322 1122.53 63.7066 1122.84 63.883L861.349 335.46C861.309 335.007 861.273 334.555 861.241 334.102L1121.93 63.3597ZM862.132 341.777C862.068 341.386 862.008 340.994 861.95 340.602L1126.34 66.0167C1126.61 66.1892 1126.88 66.3631 1127.15 66.5385L862.132 341.777ZM1212.98 140.333L1213.28 140.524C1213.44 140.626 1213.6 140.727 1213.76 140.828L948.05 416.787C947.75 416.664 947.451 416.541 947.151 416.418L1212.98 140.333ZM952.953 418.825C952.642 418.694 952.33 418.563 952.018 418.433L1217.22 142.998C1217.5 143.167 1217.77 143.337 1218.05 143.506L952.953 418.825ZM1075.96 55.4251C1075.41 55.5484 1074.86 55.6792 1074.32 55.8175L879.198 258.472C878.822 259.292 878.449 260.113 878.079 260.936L1075.96 55.4251ZM873.658 271.295C873.347 272.068 873.039 272.842 872.735 273.617L1084 54.2001C1083.52 54.2398 1083.04 54.2853 1082.56 54.3363L873.658 271.295ZM1153.23 87.9994C1153.44 88.2075 1153.66 88.4159 1153.88 88.6247L877.087 376.095C876.894 375.861 876.702 375.626 876.511 375.39L1153.23 87.9994ZM880.39 379.795C880.171 379.567 879.955 379.338 879.74 379.107L1156.75 91.4079C1156.98 91.628 1157.2 91.8483 1157.43 92.069L880.39 379.795ZM1196.56 128.862C1196.81 129.057 1197.06 129.252 1197.32 129.445L928.379 408.757C928.067 408.627 927.755 408.496 927.444 408.365L1196.56 128.862ZM932.669 410.531L932.35 410.4L1200.54 131.866C1200.79 132.053 1201.05 132.241 1201.31 132.428L933.291 410.786L932.669 410.531ZM1265.65 172.602C1265.39 172.419 1265.13 172.237 1264.86 172.054L1001.45 445.632C1001.72 445.81 1001.98 445.989 1002.25 446.167L1265.65 172.602ZM1005.62 448.435L1006.41 448.972L1269.7 175.523L1269.47 175.354C1269.29 175.221 1269.12 175.089 1268.94 174.957L1005.62 448.435ZM1138.45 74.8289C1138.69 75.0279 1138.94 75.2278 1139.18 75.4286L866.683 358.44C866.555 358.116 866.43 357.792 866.307 357.468L1138.45 74.8289ZM868.83 363.34C868.683 363.039 868.538 362.735 868.394 362.43L1142.25 78.0054C1142.49 78.2106 1142.73 78.4165 1142.97 78.6232L868.83 363.34ZM1230.28 150.822L1231.12 151.313L967.349 425.264C967.051 425.12 966.751 424.976 966.451 424.833L1230.28 150.822ZM971.383 427.26L971.112 427.123L1234.68 153.389L1234.95 153.547L1234.95 153.551L1234.96 153.553L1234.96 153.553L1235.52 153.88L971.992 427.572C971.789 427.468 971.586 427.364 971.383 427.26ZM1103.14 55.7149C1102.78 55.6281 1102.43 55.5444 1102.07 55.4638L863.693 303.035C863.571 303.612 863.453 304.189 863.339 304.766L1103.14 55.7149ZM862.143 311.775C862.068 312.304 861.996 312.833 861.927 313.362L1108.5 57.2744C1108.17 57.1625 1107.84 57.0532 1107.51 56.9466L862.143 311.775ZM1167.28 101.862L1167.95 102.531L891.636 389.505C891.378 389.318 891.121 389.13 890.866 388.941L1167.28 101.862ZM895.765 392.347C895.497 392.171 895.229 391.994 894.963 391.817L1170.78 105.356C1171.01 105.578 1171.23 105.8 1171.45 106.022L895.765 392.347ZM1188.93 122.53C1189.17 122.738 1189.41 122.945 1189.64 123.151L918.685 404.565C918.38 404.427 918.075 404.289 917.771 404.151L1188.93 122.53ZM923.505 406.689C923.196 406.556 922.887 406.422 922.579 406.288L1192.7 125.744C1192.94 125.946 1193.19 126.148 1193.43 126.348L923.505 406.689ZM1257.3 167.014C1257.03 166.84 1256.76 166.667 1256.49 166.494L993.056 440.09C993.325 440.265 993.594 440.439 993.863 440.615L1257.3 167.014ZM997.266 442.848C997.533 443.024 997.8 443.201 998.067 443.378L1261.51 169.77C1261.25 169.592 1260.98 169.415 1260.71 169.238L997.266 442.848ZM1130.51 68.8127C1130.77 68.9956 1131.03 69.1797 1131.29 69.365L863.308 347.685C863.221 347.319 863.137 346.952 863.055 346.585L1130.51 68.8127ZM864.837 353.227C864.729 352.883 864.623 352.539 864.519 352.194L1134.54 71.7579C1134.79 71.9496 1135.04 72.1422 1135.29 72.336L864.837 353.227ZM1221.97 145.892L1222.38 146.138L957.814 420.907L957.606 420.816L957.201 420.64L956.889 420.505L1221.55 145.638L1221.97 145.892ZM962.618 423.047C962.314 422.909 962.01 422.77 961.705 422.633L1225.9 148.242C1226.18 148.407 1226.46 148.572 1226.74 148.736L962.618 423.047ZM1091.03 54.0325C1090.6 54.0176 1090.17 54.0072 1089.75 54.0015L869.307 282.944C869.068 283.642 868.833 284.34 868.603 285.039L1091.03 54.0325ZM866.036 293.471C865.861 294.104 865.689 294.736 865.521 295.369L1097.35 54.5951C1096.96 54.5397 1096.58 54.488 1096.19 54.4401L866.036 293.471ZM1160.28 94.8768C1160.5 95.0986 1160.72 95.3205 1160.95 95.5426L883.929 383.249C883.696 383.036 883.465 382.822 883.235 382.607L1160.28 94.8768ZM887.684 386.479C887.438 386.28 887.194 386.08 886.95 385.878L1163.78 98.3655L1164.45 99.0337L887.684 386.479ZM1204.61 134.768C1204.87 134.95 1205.13 135.132 1205.4 135.313L938.224 412.792L937.28 412.41L1204.61 134.768ZM943.163 414.793L942.219 414.41L1208.76 137.586C1209.03 137.763 1209.29 137.94 1209.56 138.116L943.163 414.793ZM1027.27 91.7888C1034.29 82.9672 1041.62 74.8529 1049.77 68.4232L1027.27 91.7888ZM945.914 176.284C944.402 177.394 942.893 178.504 941.392 179.618L894.33 228.495C893.781 229.516 893.231 230.541 892.68 231.572L945.914 176.284ZM886.129 244.143L965.347 161.869C967.172 160.461 968.986 159.036 970.782 157.588L884.699 246.992C885.173 246.039 885.65 245.09 886.129 244.143ZM1007.84 117.738L1063.8 59.6158C1064.56 59.2589 1065.33 58.9171 1066.1 58.591L1003.1 124.023C1004.69 121.947 1006.27 119.848 1007.84 117.738ZM1273.66 178.546C1273.41 178.35 1273.16 178.154 1272.91 177.959L1009.78 451.246L1010.57 451.783L1273.66 178.546ZM1013.93 454.056C1014.2 454.235 1014.47 454.414 1014.73 454.592L1277.5 181.686C1277.39 181.592 1277.28 181.499 1277.17 181.407C1277.09 181.337 1277 181.268 1276.92 181.198L1276.77 181.076L1013.93 454.056ZM1145.98 81.2697C1146.21 81.48 1146.44 81.6909 1146.68 81.9024L871.298 367.908C871.131 367.627 870.965 367.344 870.802 367.059L1145.98 81.2697ZM874.067 372.162C873.881 371.9 873.697 371.637 873.515 371.372L1149.63 84.6059C1149.86 84.8203 1150.09 85.0352 1150.32 85.2506L874.067 372.162ZM1239.07 155.956C1239.35 156.12 1239.63 156.284 1239.91 156.448L976.531 429.988C976.245 429.831 975.959 429.674 975.672 429.517L1239.07 155.956ZM980.54 432.285L980.369 432.183C980.284 432.133 980.199 432.083 980.115 432.033L1243.45 158.534C1243.73 158.699 1244.01 158.864 1244.29 159.029L980.95 432.529L980.77 432.422L980.54 432.285ZM1113.52 59.1891C1113.21 59.0567 1112.9 58.9266 1112.59 58.7987L861.276 319.806C861.24 320.293 861.208 320.781 861.18 321.268L1113.52 59.1891ZM861 327.222C861 327.674 861.002 328.125 861.008 328.577L1118.26 61.3955C1117.97 61.2463 1117.67 61.099 1117.38 60.9536L861 327.222ZM1174.3 108.834C1174.52 109.055 1174.75 109.276 1174.97 109.497L900.053 395.023C899.775 394.857 899.498 394.691 899.222 394.523L1174.3 108.834ZM904.482 397.554C904.195 397.397 903.91 397.239 903.625 397.08L1177.84 112.286C1178.07 112.505 1178.29 112.724 1178.52 112.942L904.482 397.554ZM1048.34 475.307C1048.63 475.46 1048.92 475.612 1049.21 475.764L1302.29 212.914C1302.15 212.608 1302.01 212.303 1301.86 211.999L1048.34 475.307ZM1044.68 473.339C1044.39 473.181 1044.11 473.023 1043.82 472.865L1299.45 207.374L1299.55 207.544L1299.64 207.701C1299.73 207.879 1299.83 208.058 1299.93 208.238L1044.68 473.339ZM1035.86 468.239C1035.58 468.072 1035.31 467.905 1035.03 467.737L1293.91 198.872C1294 199.002 1294.1 199.133 1294.2 199.264C1294.29 199.391 1294.38 199.518 1294.48 199.645L1035.86 468.239ZM1039.39 470.337L1296.79 203.005C1296.97 203.276 1297.15 203.548 1297.32 203.822L1040.23 470.826C1039.95 470.664 1039.67 470.501 1039.39 470.337ZM1018.87 457.366C1018.61 457.196 1018.36 457.026 1018.1 456.856L1280.52 184.32C1280.74 184.522 1280.96 184.725 1281.18 184.928L1018.87 457.366ZM1022.26 459.613L1284.09 187.68C1284.22 187.806 1284.35 187.933 1284.47 188.06C1284.57 188.155 1284.66 188.25 1284.76 188.345L1023.06 460.142C1022.79 459.966 1022.52 459.79 1022.26 459.613ZM1026.47 462.364L1287.54 191.227C1287.75 191.459 1287.97 191.692 1288.18 191.925L1027.28 462.886C1027.01 462.712 1026.74 462.538 1026.47 462.364ZM1030.73 465.076L1290.82 194.952C1291.02 195.195 1291.22 195.44 1291.42 195.686L1031.55 465.589C1031.27 465.418 1031 465.247 1030.73 465.076ZM1083.73 488.889C1083.87 488.921 1084.01 488.954 1084.14 488.985L1084.8 489.136L1309.86 255.4C1309.88 254.923 1309.9 254.447 1309.92 253.971L1083.73 488.889ZM1309.37 261.666L1089.34 490.187L1089.93 490.325L1090.41 490.438L1309.21 263.201C1309.27 262.689 1309.32 262.178 1309.37 261.666ZM1073.91 486.187C1073.58 486.08 1073.24 485.972 1072.91 485.863L1309.54 240.106C1309.56 240.324 1309.58 240.542 1309.6 240.76C1309.62 240.957 1309.64 241.154 1309.65 241.351L1073.91 486.187ZM1078.22 487.477L1309.96 246.8C1309.97 247.244 1309.98 247.688 1309.99 248.133L1079.26 487.763C1078.91 487.669 1078.57 487.574 1078.22 487.477ZM1054.12 478.224C1053.73 478.035 1053.33 477.844 1052.94 477.652L1304.01 216.904C1304.16 217.3 1304.32 217.698 1304.47 218.098C1304.48 218.126 1304.49 218.154 1304.5 218.182L1054.12 478.224ZM1057.94 480.015L1305.96 222.428C1306.07 222.772 1306.18 223.116 1306.28 223.461L1058.86 480.427C1058.56 480.291 1058.25 480.153 1057.94 480.015ZM1062.79 482.114L1307.5 227.961C1307.54 228.125 1307.58 228.289 1307.62 228.453C1307.67 228.654 1307.71 228.856 1307.76 229.057L1063.73 482.499C1063.42 482.372 1063.1 482.244 1062.79 482.114ZM1067.77 484.069L1308.71 233.841C1308.77 234.229 1308.83 234.618 1308.89 235.007L1068.74 484.425C1068.42 484.308 1068.09 484.189 1067.77 484.069ZM1308.28 269.932L1094.94 491.503L1095.96 491.744L1308.02 271.507C1308.11 270.982 1308.2 270.457 1308.28 269.932ZM1306.62 278.724L1100.49 492.811L1101.56 493.063L1306.24 280.489C1306.37 279.901 1306.5 279.313 1306.62 278.724ZM1304.36 288.203L1106.09 494.125C1106.45 494.208 1106.8 494.291 1107.16 494.374L1303.86 290.083C1304.03 289.456 1304.2 288.829 1304.36 288.203ZM1301.54 298.261L1111.71 495.419C1112.07 495.501 1112.43 495.583 1112.78 495.664L1300.95 300.243C1301.15 299.582 1301.35 298.922 1301.54 298.261ZM1298.26 308.804L1117.35 496.684C1117.72 496.764 1118.08 496.843 1118.44 496.922L1297.59 310.862C1297.81 310.176 1298.03 309.49 1298.26 308.804ZM1294.66 319.664L1123.04 497.907C1123.41 497.984 1123.77 498.06 1124.14 498.135L1293.96 321.758L1294.31 320.722L1294.66 319.664ZM1290.99 330.614L1128.78 499.076C1129.15 499.148 1129.52 499.22 1129.89 499.292L1290.29 332.697C1290.52 332.003 1290.75 331.308 1290.99 330.614ZM1287.46 341.407L1134.59 500.176C1134.96 500.244 1135.33 500.311 1135.71 500.377L1286.82 343.434C1287.03 342.758 1287.24 342.083 1287.46 341.407ZM1284.29 351.826L1140.48 501.192C1140.71 501.23 1140.94 501.268 1141.18 501.305C1141.35 501.333 1141.52 501.361 1141.7 501.388L1283.7 353.906C1283.9 353.213 1284.09 352.519 1284.29 351.826ZM1147.71 502.277C1147.32 502.225 1146.94 502.171 1146.55 502.117L1281.61 361.846C1281.46 362.453 1281.31 363.062 1281.16 363.673L1147.71 502.277ZM1160.13 503.638C1159.72 503.605 1159.32 503.571 1158.91 503.536L1277.48 380.395C1277.36 380.971 1277.24 381.547 1277.13 382.124L1160.13 503.638ZM1152.66 502.903C1153.05 502.949 1153.45 502.993 1153.84 503.037L1279.03 373.017C1279.16 372.428 1279.29 371.84 1279.42 371.253L1152.66 502.903ZM1187.73 503.494C1187.24 503.546 1186.76 503.594 1186.27 503.64L1269.95 416.74C1269.8 417.343 1269.66 417.946 1269.52 418.547L1187.73 503.494ZM1179.25 504.102L1179.43 504.095C1179.54 504.091 1179.64 504.086 1179.74 504.082C1179.94 504.074 1180.13 504.065 1180.32 504.056L1271.63 409.22C1271.76 408.637 1271.88 408.052 1272.01 407.467L1178.95 504.113L1179.07 504.109L1179.25 504.102ZM1166 504.016C1166.2 504.025 1166.4 504.035 1166.6 504.043L1275.33 391.123L1275.67 389.406L1165.35 503.983C1165.56 503.994 1165.78 504.005 1166 504.016ZM1273.88 398.396L1172.01 504.196C1172.44 504.201 1172.88 504.205 1173.31 504.206L1273.53 400.12C1273.65 399.546 1273.76 398.971 1273.88 398.396ZM1228.89 489.211L1251.29 465.942C1252.06 464.736 1252.8 463.511 1253.52 462.266L1225.5 491.366C1226.64 490.68 1227.77 489.962 1228.89 489.211ZM1214.69 496.828L1259.44 450.348C1259.78 449.551 1260.12 448.749 1260.44 447.942L1212.55 497.684C1213.27 497.408 1213.98 497.123 1214.69 496.828ZM1204.41 500.366L1263.88 438.606C1264.11 437.92 1264.34 437.232 1264.56 436.541L1202.65 500.838C1203.24 500.687 1203.83 500.529 1204.41 500.366ZM1195.62 502.368L1267.04 428.194L1267.11 427.947L1267.14 427.816C1267.18 427.692 1267.21 427.568 1267.25 427.445C1267.34 427.088 1267.44 426.73 1267.54 426.372L1194.11 502.629C1194.62 502.546 1195.12 502.459 1195.62 502.368Z" fill="url(#paint1_linear_0_1)"/>
</g>
<mask id="mask0_0_1" style="mask-type:alpha" maskUnits="userSpaceOnUse" x="0" y="351" width="1920" height="449">
<rect y="351" width="1920" height="449" fill="#6676A9"/>
</mask>
<g mask="url(#mask0_0_1)">
<path opacity="0.5" fill-rule="evenodd" clip-rule="evenodd" d="M360.798 979.724C259.525 964.709 216.276 885.851 134.721 842.421C57.7964 801.456 -70.3914 796.087 -101.977 733.282C-133.548 670.508 -50.6173 610.01 -12.9441 548.806C20.9906 493.676 35.9698 429.429 106.86 394.006C177.925 358.495 272.623 359.596 360.798 362.049C445.649 364.41 524.074 381.97 600.045 407.728C690.925 438.541 810.469 459.564 841.836 525.144C873.204 590.725 776.062 650.343 747.76 716.563C718.047 786.085 747.517 870.871 672.176 922.108C594.274 975.087 468.536 995.698 360.798 979.724Z" fill="url(#paint2_linear_0_1)"/>
<g opacity="0.75">
<path fill-rule="evenodd" clip-rule="evenodd" d="M744.903 1056.73C744.084 1057.6 743.269 1058.47 742.459 1059.34L329.814 662.026C330.372 660.906 330.937 659.792 331.507 658.686L744.903 1056.73ZM326.517 668.851C326.996 667.829 327.479 666.812 327.966 665.799L739.752 1062.29C739.032 1063.08 738.316 1063.87 737.605 1064.67L326.517 668.851ZM821.142 970.07C820.584 971.055 820.012 972.035 819.427 973.011L422.406 590.739C423.859 590.585 425.315 590.456 426.773 590.351L821.142 970.07ZM413.362 592.031C414.675 591.793 415.991 591.578 417.309 591.384L817.273 976.491C816.691 977.404 816.096 978.315 815.491 979.222L413.362 592.031ZM709.022 1102.7C708.447 1103.6 707.875 1104.5 707.305 1105.41L305.587 718.616C306.017 717.575 306.446 716.533 306.873 715.49L709.022 1102.7ZM302.605 725.744C303.051 724.692 303.496 723.637 303.938 722.581L705.14 1108.88C704.566 1109.81 703.993 1110.74 703.423 1111.67L302.605 725.744ZM833.349 906.27C833.002 904.395 832.595 902.549 832.13 900.733L536.937 616.506C534.13 615.218 531.309 613.955 528.476 612.723L833.349 906.27ZM518.257 608.436C515.676 607.396 513.088 606.385 510.493 605.408L834.666 917.539C834.624 916.708 834.569 915.874 834.502 915.035C834.44 914.261 834.369 913.491 834.287 912.727L518.257 608.436ZM785.253 1015.66C784.53 1016.42 783.804 1017.17 783.075 1017.93L364.207 614.618C365.005 613.931 365.815 613.256 366.636 612.593L785.253 1015.66ZM358.911 619.519C359.67 618.766 360.44 618.025 361.221 617.296L780.288 1020.8C779.542 1021.56 778.795 1022.32 778.045 1023.08L358.911 619.519ZM725.731 1078.79C725.068 1079.64 724.412 1080.49 723.764 1081.34L317.279 689.956C317.718 688.897 318.16 687.839 318.603 686.784L725.731 1078.79ZM314.334 697.121C314.768 696.056 315.203 694.992 315.639 693.93L721.356 1084.58C720.719 1085.44 720.088 1086.32 719.46 1087.2L314.334 697.121ZM804.438 994.132C803.765 994.961 803.084 995.789 802.397 996.614L389.471 599.027C390.559 598.577 391.649 598.144 392.743 597.73L804.438 994.132ZM382.456 602.273C383.461 601.756 384.48 601.255 385.515 600.77L799.811 999.677C799.117 1000.49 798.416 1001.29 797.71 1002.1L382.456 602.273ZM693.744 1127.91C693.188 1128.85 692.634 1129.8 692.079 1130.75L293.149 746.64C293.642 745.632 294.131 744.62 294.615 743.604L693.744 1127.91ZM289.749 753.366C290.265 752.38 290.775 751.389 291.28 750.393L690.004 1134.31L689.782 1134.69L689.778 1134.69L689.774 1134.7L689.77 1134.71L689.766 1134.71L689.763 1134.72C689.289 1135.53 688.816 1136.34 688.342 1137.15L289.749 753.366ZM831.757 944.738C832.077 943.548 832.373 942.35 832.644 941.145L472.025 593.922C470.092 593.514 468.159 593.134 466.226 592.785L831.757 944.738ZM459.295 591.664C457.52 591.412 455.746 591.186 453.974 590.988L829.344 952.415C829.744 951.304 830.124 950.188 830.484 949.065L459.295 591.664ZM765.06 1036.13C764.305 1036.89 763.55 1037.64 762.795 1038.4L345.002 636.126C345.625 635.243 346.256 634.369 346.896 633.504L765.06 1036.13ZM340.926 642.202C341.513 641.284 342.107 640.373 342.708 639.471L759.971 1041.23C759.218 1041.99 758.465 1042.75 757.714 1043.51L340.926 642.202ZM734.954 1067.67C734.249 1068.48 733.549 1069.29 732.856 1070.1L323.345 675.797C323.807 674.759 324.273 673.725 324.742 672.695L734.954 1067.67ZM320.274 682.84C320.723 681.79 321.175 680.742 321.629 679.698L730.272 1073.16C729.586 1073.99 728.907 1074.82 728.234 1075.65L320.274 682.84ZM813.201 982.569C812.583 983.45 811.955 984.328 811.318 985.203L404.897 593.88C406.127 593.564 407.359 593.268 408.594 592.993L813.201 982.569ZM396.95 596.229C398.105 595.842 399.263 595.474 400.424 595.126L808.911 988.439C808.263 989.292 807.607 990.142 806.942 990.99L396.95 596.229ZM701.295 1115.18C700.729 1116.11 700.165 1117.05 699.603 1117.99L299.553 732.806C300.012 731.765 300.468 730.721 300.92 729.675L701.295 1115.18ZM296.409 739.779C296.883 738.753 297.354 737.723 297.82 736.69L697.502 1121.52C696.942 1122.47 696.384 1123.41 695.827 1124.36L296.409 739.779ZM834.61 927.485C834.7 926.066 834.755 924.637 834.775 923.196L501.288 602.098C498.957 601.3 496.621 600.533 494.282 599.799L834.61 927.485ZM485.956 597.335C483.838 596.747 481.719 596.189 479.6 595.662L833.565 936.479C833.784 935.188 833.974 933.889 834.135 932.581L485.956 597.335ZM775.235 1025.93C774.484 1026.69 773.731 1027.45 772.977 1028.2L353.965 624.757C354.674 623.956 355.394 623.166 356.123 622.388L775.235 1025.93ZM349.338 630.302C350.003 629.458 350.676 628.624 351.358 627.8L770.153 1031.04C769.399 1031.79 768.644 1032.55 767.888 1033.3L349.338 630.302ZM717.128 1090.51C716.512 1091.39 715.898 1092.29 715.289 1093.18L311.416 704.311C311.848 703.244 312.28 702.178 312.712 701.112L717.128 1090.51ZM308.5 711.504C308.933 710.438 309.366 709.372 309.798 708.306L713.023 1096.55C712.423 1097.46 711.826 1098.36 711.232 1099.28L308.5 711.504ZM766.615 822.098C787.504 837.742 807.036 853.86 819.792 873.3L766.615 822.098ZM660.702 719.217L660.687 719.196L660.687 719.196C657.728 715.149 654.776 711.11 651.804 707.105L580.601 638.548C577.192 636.712 573.743 634.87 570.257 633.035L662.933 722.268C662.206 721.274 661.479 720.28 660.753 719.287L660.702 719.217ZM557.808 626.601L677.659 742C683.438 749.492 689.418 756.846 695.776 763.891L548.271 621.866C551.473 623.423 554.653 625.004 557.808 626.601ZM741.927 803.881L826.598 885.407C827.736 887.827 828.769 890.299 829.688 892.829L716.808 784.142C724.81 790.956 733.306 797.472 741.927 803.881ZM795.056 1005.1C794.344 1005.89 793.628 1006.68 792.906 1007.48L375.923 605.982C376.858 605.399 377.807 604.83 378.771 604.277L795.056 1005.1ZM369.835 610.121C370.707 609.476 371.592 608.846 372.489 608.229L790.196 1010.42C789.471 1011.2 788.741 1011.98 788.007 1012.76L369.835 610.121ZM686.265 1140.71C685.71 1141.65 685.154 1142.6 684.598 1143.55L286.186 759.935C286.727 758.974 287.263 758.007 287.792 757.035L686.265 1140.71ZM283.762 764.123C283.884 763.918 284.006 763.712 284.127 763.506L682.51 1147.09C681.951 1148.03 681.391 1148.98 680.831 1149.92L282.442 766.33C282.884 765.596 283.324 764.86 283.762 764.123ZM826.44 959.618C826.906 958.573 827.355 957.523 827.786 956.467L447.597 590.401C445.96 590.283 444.324 590.19 442.69 590.124L826.44 959.618ZM436.795 590C435.277 589.999 433.761 590.021 432.248 590.069L823.13 966.431C823.65 965.44 824.156 964.445 824.647 963.445L436.795 590ZM754.904 1046.36C754.155 1047.12 753.408 1047.88 752.662 1048.64L337.084 648.503C337.638 647.553 338.198 646.61 338.766 645.675L754.904 1046.36ZM333.448 655.001C333.973 654.024 334.504 653.053 335.041 652.089L749.876 1051.51C749.133 1052.28 748.393 1053.05 747.657 1053.82L333.448 655.001ZM596.967 648.753C611.211 658.995 623.335 671.445 634.555 684.945L596.967 648.753ZM278.531 772.71C279.127 771.753 279.721 770.794 280.312 769.832L678.722 1153.44C678.138 1154.41 677.553 1155.38 676.966 1156.34L278.531 772.71ZM276.358 776.17C275.775 777.091 275.189 778.01 274.602 778.927L673.097 1162.62C673.676 1161.69 674.252 1160.77 674.826 1159.84L276.358 776.17ZM268.377 788.486C267.778 789.392 267.178 790.297 266.577 791.2L665.11 1174.93C665.716 1174.03 666.32 1173.13 666.92 1172.22L268.377 788.486ZM270.613 785.086C271.208 784.177 271.802 783.266 272.393 782.354L670.917 1166.07C670.331 1166.99 669.742 1167.91 669.151 1168.82L270.613 785.086ZM262.507 797.282C263.112 796.382 263.717 795.482 264.32 794.581L662.817 1178.27C662.2 1179.16 661.579 1180.05 660.954 1180.93L262.507 797.282ZM260.238 800.65C259.632 801.549 259.025 802.447 258.418 803.345L656.664 1186.8C657.31 1185.94 657.952 1185.07 658.589 1184.2L260.238 800.65ZM649.677 1195.62C648.99 1196.44 648.298 1197.26 647.6 1198.07L250.234 815.464C250.838 814.565 251.444 813.666 252.05 812.766L649.677 1195.62ZM652.219 1192.52C652.89 1191.68 653.555 1190.84 654.216 1189.99L256.144 806.708L254.966 808.449L254.322 809.401L652.219 1192.52ZM221.095 862.877C220.576 863.863 220.064 864.852 219.557 865.844L601.508 1233.61C602.561 1233.14 603.603 1232.66 604.633 1232.17L221.095 862.877ZM223.054 859.211C223.582 858.239 224.115 857.27 224.653 856.303L611.37 1228.65C610.398 1229.2 609.415 1229.74 608.422 1230.26L223.054 859.211ZM230.425 846.308C230.987 845.369 231.552 844.431 232.122 843.495L623.754 1220.58C622.884 1221.23 622.005 1221.86 621.117 1222.49L230.425 846.308ZM228.334 849.848L617.733 1224.78C616.814 1225.38 615.886 1225.97 614.947 1226.55L226.683 852.705C227.229 851.751 227.779 850.798 228.334 849.848ZM246.2 821.497C246.789 820.611 247.379 819.725 247.971 818.839L644.951 1201.07C644.248 1201.85 643.539 1202.62 642.824 1203.39L246.2 821.497ZM243.955 824.888L640.057 1206.28C639.307 1207.04 638.552 1207.79 637.789 1208.54L242.167 827.614C242.761 826.705 243.357 825.796 243.955 824.888ZM239.948 831.03L634.889 1211.3C634.104 1212.03 633.31 1212.75 632.51 1213.46L238.183 833.778C238.769 832.861 239.357 831.945 239.948 831.03ZM235.998 837.227L629.464 1216.08C628.638 1216.77 627.804 1217.45 626.961 1218.11L234.264 840.005C234.839 839.078 235.417 838.152 235.998 837.227ZM201.312 914.426C201.264 914.629 201.218 914.832 201.171 915.035C200.94 916.044 200.708 917.055 200.474 918.067L538.611 1243.64C540.241 1243.75 541.87 1243.84 543.497 1243.9L201.312 914.426ZM532.288 1243.11L199.42 922.605C199.278 923.216 199.135 923.827 198.991 924.439L198.807 925.227L198.57 926.234L527.04 1242.5C528.79 1242.73 530.54 1242.93 532.288 1243.11ZM204.639 902.078C204.989 900.936 205.349 899.801 205.719 898.67L563.693 1243.35C562.276 1243.49 560.858 1243.6 559.438 1243.7L204.639 902.078ZM203.368 906.407L553.942 1243.96C552.425 1244 550.907 1244.02 549.387 1244.02L202.415 909.936C202.722 908.754 203.04 907.577 203.368 906.407ZM216.017 873.032C216.562 871.88 217.117 870.732 217.679 869.589L597.488 1235.29C596.912 1235.52 596.332 1235.74 595.749 1235.96C595.073 1236.21 594.396 1236.46 593.719 1236.7L216.017 873.032ZM214.237 876.872L589.443 1238.14C588.269 1238.51 587.094 1238.86 585.917 1239.19L212.854 879.987C213.308 878.945 213.769 877.907 214.237 876.872ZM211.18 883.929L581.383 1240.38C580.137 1240.68 578.889 1240.96 577.64 1241.22L209.886 887.13C210.31 886.059 210.741 884.991 211.18 883.929ZM208.332 891.186L572.819 1242.13C571.492 1242.36 570.163 1242.56 568.834 1242.74L207.139 894.485C207.528 893.381 207.926 892.281 208.332 891.186ZM520.248 1241.52L197.505 930.761L197.236 931.9L196.73 934.041L196.73 934.044L196.729 934.048L196.729 934.049L196.728 934.051L196.728 934.053L196.727 934.056L196.727 934.057L196.727 934.058L196.726 934.06L196.725 934.064L196.723 934.075L196.719 934.088L196.718 934.096L196.715 934.109L196.709 934.132L196.704 934.152L196.702 934.164L196.698 934.179L196.695 934.194L196.693 934.202L196.69 934.215L196.665 934.317L514.72 1240.56C516.564 1240.9 518.407 1241.22 520.248 1241.52ZM507.439 1239.1L195.598 938.842C195.314 940.049 195.029 941.257 194.745 942.468L501.408 1237.74C503.42 1238.21 505.43 1238.67 507.439 1239.1ZM493.633 1235.81L193.685 947C193.403 948.21 193.122 949.422 192.842 950.636L487.216 1234.07C489.355 1234.67 491.495 1235.25 493.633 1235.81ZM478.982 1231.7L191.799 955.184C191.522 956.4 191.247 957.618 190.973 958.836L472.227 1229.64C474.479 1230.34 476.731 1231.03 478.982 1231.7ZM463.625 1226.91L189.957 963.41C189.687 964.634 189.42 965.86 189.156 967.086L456.629 1224.62C458.96 1225.39 461.293 1226.16 463.625 1226.91ZM447.805 1221.68L188.175 971.695C187.916 972.93 187.66 974.166 187.407 975.402L440.709 1219.29L441.939 1219.71L441.94 1219.71L441.942 1219.71L441.943 1219.71L441.944 1219.71L441.945 1219.71L441.946 1219.71L441.948 1219.71L441.949 1219.71L441.95 1219.71L441.951 1219.71L441.952 1219.71L441.954 1219.71L441.955 1219.71L441.956 1219.71L441.957 1219.71L441.958 1219.71L441.959 1219.72L441.961 1219.72L441.962 1219.72L441.963 1219.72L441.964 1219.72L441.965 1219.72L441.967 1219.72L441.974 1219.72L441.977 1219.72L441.977 1219.72L441.978 1219.72L441.979 1219.72L441.979 1219.72L441.98 1219.72L441.981 1219.72L441.981 1219.72L441.982 1219.72L441.983 1219.72L441.983 1219.72L441.984 1219.72L441.984 1219.72L441.985 1219.72L441.986 1219.72L441.986 1219.72L441.987 1219.72L441.988 1219.72L441.988 1219.72L441.989 1219.72L441.99 1219.72L441.99 1219.72L441.991 1219.72L441.992 1219.72L441.992 1219.73L441.993 1219.73L441.993 1219.73L441.994 1219.73L441.995 1219.73L441.995 1219.73L441.996 1219.73L442.001 1219.73C443.935 1220.38 445.87 1221.03 447.805 1221.68ZM431.857 1216.32L186.473 980.056C186.227 981.305 185.985 982.554 185.747 983.804L424.816 1213.99C427.161 1214.76 429.508 1215.54 431.857 1216.32ZM416.134 1211.19L184.871 988.513C184.641 989.779 184.416 991.045 184.196 992.311L409.302 1209.05C411.578 1209.75 413.855 1210.46 416.134 1211.19ZM400.959 1206.57L183.391 997.089C183.175 998.417 182.964 999.746 182.76 1001.07L394.241 1204.7C395.198 1204.96 396.152 1205.22 397.103 1205.48C398.387 1205.84 399.673 1206.2 400.959 1206.57ZM181.51 1009.87C181.68 1008.56 181.859 1007.25 182.044 1005.94L386.361 1202.66C384.319 1202.16 382.266 1201.67 380.204 1201.18L181.51 1009.87ZM179.649 1028.08C179.748 1026.7 179.857 1025.32 179.976 1023.95L359.343 1196.65C357.396 1196.25 355.446 1195.86 353.492 1195.46L179.649 1028.08ZM180.899 1014.83C180.743 1016.18 180.596 1017.52 180.458 1018.86L366.702 1198.18C368.693 1198.61 370.679 1199.03 372.658 1199.47L180.899 1014.83ZM180.366 1068.77C180.162 1067.12 179.982 1065.46 179.825 1063.8L306.402 1185.68C304.342 1185.19 302.289 1184.7 300.245 1184.19L180.366 1068.77ZM179.136 1053.14C179.193 1054.7 179.268 1056.25 179.362 1057.8L313.95 1187.39C315.931 1187.83 317.918 1188.26 319.908 1188.68L179.136 1053.14ZM179.325 1033.32C179.251 1034.74 179.19 1036.17 179.14 1037.59L340.399 1192.86C341.435 1193.06 342.472 1193.27 343.508 1193.47L346.217 1194.01L179.325 1033.32ZM333.123 1191.4L179.015 1043.02C178.998 1044.5 178.995 1045.98 179.008 1047.46L327.27 1190.22C329.219 1190.62 331.17 1191.01 333.123 1191.4ZM200.989 1126.09C199.841 1124.38 198.745 1122.66 197.701 1120.93L240.095 1161.75C234.796 1158.7 229.731 1155.33 224.942 1151.61L207.668 1134.97C205.324 1132.17 203.095 1129.21 200.989 1126.09ZM188.5 1102.07C189.474 1104.6 190.532 1107.1 191.679 1109.58L252.548 1168.19C255.305 1169.46 258.11 1170.68 260.958 1171.84L188.5 1102.07ZM181.298 1075.22C181.592 1076.99 181.916 1078.76 182.272 1080.52L285.997 1180.39C288.108 1181 290.234 1181.59 292.371 1182.17L181.298 1075.22ZM277.566 1177.83L183.906 1087.65C184.432 1089.69 185.004 1091.73 185.626 1093.75L270.465 1175.44C272.809 1176.26 275.177 1177.06 277.566 1177.83Z" fill="url(#paint3_linear_0_1)"/>
</g>
<path opacity="0.5" fill-rule="evenodd" clip-rule="evenodd" d="M1335.35 964.815C1261.27 998.27 1203.68 970.317 1132.79 978.986C1065.93 987.163 977.04 1037.46 933.114 1014.01C889.21 990.564 923.803 920.726 927.439 869.339C930.715 823.051 917.864 779.348 953.27 729.147C988.764 678.823 1053.4 639.996 1114.1 604.676C1172.52 570.687 1232.01 548.238 1292.78 531.592C1365.47 511.679 1454.11 474.112 1498.88 499.275C1543.65 524.439 1499.1 599.687 1503.62 650.094C1508.36 703.013 1558.73 740.165 1525.97 801.441C1492.09 864.799 1414.17 929.224 1335.35 964.815Z" fill="url(#paint4_linear_0_1)"/>
</g>
<g opacity="0.5">
<path fill-rule="evenodd" clip-rule="evenodd" d="M189.701 120.857C190.568 121.685 191.413 122.527 192.237 123.384L-287.74 621.88C-288.673 621.128 -289.601 620.371 -290.525 619.61L189.701 120.857ZM-282.059 626.365C-282.909 625.709 -283.755 625.048 -284.598 624.384L194.946 126.339C195.654 127.149 196.345 127.971 197.02 128.804L-282.059 626.365ZM-172.309 169.128C-172.943 169.56 -173.574 169.997 -174.203 170.441C-191.001 182.287 -204.044 197.207 -215.249 213.724L-172.309 169.128ZM-225.683 230.328C-227.852 234.024 -229.966 237.771 -232.044 241.553L-150.6 156.968C-153.455 158.269 -156.278 159.657 -159.066 161.141L-225.683 230.328ZM33.5134 116.833C35.6721 116.183 37.8318 115.529 39.9915 114.874L-359.401 529.675C-359.827 528.518 -360.239 527.356 -360.637 526.189L33.5134 116.833ZM-356.476 537.023C-356.934 535.952 -357.38 534.876 -357.814 533.795L47.8236 112.507C49.9054 111.881 51.9865 111.258 54.0661 110.643L-356.476 537.023ZM218.364 174.717C218.666 175.919 218.957 177.127 219.237 178.343L-239.703 654.989C-240.626 654.441 -241.549 653.888 -242.471 653.332L218.364 174.717ZM-233.301 658.727C-234.254 658.18 -235.206 657.63 -236.158 657.075L220.266 183.041C220.53 184.311 220.784 185.587 221.028 186.869L-233.301 658.727ZM-60.3196 135.818C-61.9818 136.031 -63.6428 136.244 -65.3022 136.461L-359.295 441.796C-360.255 444.214 -361.146 446.648 -361.964 449.1L-60.3196 135.818ZM-364.432 457.43C-364.952 459.442 -365.42 461.466 -365.832 463.503L-48.9203 134.365C-50.6108 134.582 -52.301 134.797 -53.9906 135.012L-364.432 457.43ZM132.601 97.1594C133.969 97.2306 135.331 97.3262 136.688 97.4474L-329.172 581.28C-329.841 580.461 -330.502 579.638 -331.158 578.81L132.601 97.1594ZM-324.507 586.821C-325.211 586.01 -325.909 585.195 -326.601 584.377L141.693 98.0162C142.984 98.1953 144.27 98.3993 145.55 98.6294L-324.507 586.821ZM207.327 144.637C207.849 145.64 208.356 146.653 208.849 147.675L-264.424 639.207C-265.315 638.595 -266.205 637.979 -267.092 637.359L207.327 144.637ZM-258.36 643.295C-259.264 642.697 -260.167 642.095 -261.068 641.489L210.64 151.582C211.104 152.645 211.553 153.718 211.989 154.8L-258.36 643.295ZM-107.407 143.265C-109.302 143.669 -111.191 144.09 -113.072 144.53L-263.899 301.176C-264.424 302.081 -264.954 302.985 -265.486 303.886C-267.482 307.263 -269.573 310.613 -271.743 313.941L-107.407 143.265ZM-286.846 335.394C-292.772 343.319 -298.947 351.168 -305.13 359.002L-95.1151 140.885C-96.9204 141.203 -98.7209 141.533 -100.516 141.875L-286.846 335.394ZM88.3196 101.606C90.1715 101.206 92.0189 100.827 93.8614 100.47L-346.054 557.357C-346.625 556.405 -347.186 555.448 -347.738 554.487L88.3196 101.606ZM-342.113 563.65C-342.714 562.73 -343.307 561.806 -343.892 560.878L100.569 99.27C102.307 98.9865 104.04 98.7261 105.767 98.4907L-342.113 563.65ZM224.494 209.808C224.658 211.179 224.816 212.555 224.969 213.933L-213.443 669.259C-214.465 668.79 -215.484 668.309 -216.501 667.816L224.494 209.808ZM-206.373 672.303C-207.435 671.875 -208.494 671.435 -209.551 670.984L225.524 219.124C225.667 220.516 225.806 221.911 225.942 223.309L-206.373 672.303ZM-13.942 129.194C-15.6596 129.52 -17.3727 129.826 -19.0809 130.109L-19.3057 130.146L-367.749 492.033C-367.652 493.434 -367.525 494.842 -367.37 496.257L-13.942 129.194ZM-366.707 501.336C-366.509 502.657 -366.293 503.972 -366.058 505.281L-1.3371 126.489C-3.23996 126.94 -5.13867 127.373 -7.03262 127.785L-366.707 501.336ZM165.344 104.611C166.373 105.064 167.398 105.539 168.417 106.038L-309.633 602.531C-310.399 601.785 -311.159 601.035 -311.915 600.282L165.344 104.611ZM-304.41 607.492C-305.194 606.765 -305.973 606.035 -306.748 605.301L172.116 107.962C173.074 108.491 174.026 109.041 174.973 109.614L-304.41 607.492ZM199.491 132.004C200.136 132.88 200.764 133.766 201.377 134.664L-276.277 630.746C-277.141 630.105 -278.002 629.459 -278.861 628.811L199.491 132.004ZM-270.397 635.025C-271.275 634.399 -272.151 633.769 -273.024 633.135L203.615 138.107C204.198 139.047 204.765 139.997 205.316 140.959L-270.397 635.025ZM-134.46 150.591C-136.753 151.371 -139.029 152.194 -141.288 153.063L-239.002 254.547C-240.756 257.888 -242.497 261.244 -244.239 264.605L-134.46 150.591ZM-250.753 277.137C-252.557 280.581 -254.377 284.018 -256.226 287.44L-120.378 146.351C-122.418 146.892 -124.448 147.459 -126.466 148.055L-250.753 277.137ZM61.7845 108.394C63.8185 107.812 65.8502 107.24 67.8791 106.683L-353.258 544.067C-353.757 543.039 -354.246 542.007 -354.723 540.97L61.7845 108.394ZM-349.776 550.837C-350.313 549.849 -350.839 548.856 -351.356 547.859L75.3488 104.692C77.3028 104.189 79.2533 103.702 81.1997 103.234L-349.776 550.837ZM221.906 191.724C222.131 193.033 222.347 194.349 222.555 195.669L-226.82 662.381C-227.784 661.847 -228.748 661.309 -229.712 660.766L221.906 191.724ZM-222.926 664.517L-223.187 664.375L223.302 200.66C223.493 202.004 223.677 203.352 223.855 204.705L-220.246 665.939C-221.141 665.475 -222.035 665.001 -222.926 664.517ZM-37.468 132.856C-39.1694 133.088 -40.8716 133.316 -42.574 133.541L-367.02 470.504C-367.257 472.236 -367.452 473.978 -367.605 475.73L-37.468 132.856ZM-367.958 481.864C-368.002 483.405 -368.012 484.954 -367.986 486.512L-25.8607 131.187C-27.5885 131.451 -29.3181 131.707 -31.0489 131.957L-367.958 481.864ZM150.184 99.5835C151.38 99.8619 152.571 100.165 153.756 100.493L-319.689 592.203C-320.415 591.415 -321.135 590.624 -321.85 589.828L150.184 99.5835ZM-314.728 597.437C-315.475 596.671 -316.216 595.901 -316.952 595.127L158.05 101.8C159.159 102.17 160.262 102.563 161.361 102.98L-314.728 597.437ZM213.57 158.925C213.978 160.046 214.373 161.175 214.755 162.313L-252.208 647.292C-253.125 646.707 -254.041 646.118 -254.955 645.526L213.57 158.925ZM-245.971 651.2C-246.9 650.628 -247.828 650.052 -248.755 649.472L216.137 166.645C216.492 167.82 216.836 169.002 217.168 170.193L-245.971 651.2ZM-83.2564 138.955C-85.004 139.218 -86.7481 139.49 -88.4885 139.77L-327.754 388.267C-331.914 393.902 -335.924 399.567 -339.694 405.285L-83.2564 138.955ZM-349.341 421.072C-351.207 424.409 -352.967 427.77 -354.606 431.159L-71.6673 137.304C-73.3793 137.536 -75.0892 137.771 -76.7964 138.012L-349.341 421.072ZM112.035 97.7477C113.655 97.5856 115.269 97.4481 116.878 97.337L-337.969 569.732C-338.599 568.842 -339.222 567.949 -339.836 567.052L112.035 97.7477ZM-333.638 575.62C-334.295 574.759 -334.945 573.893 -335.587 573.024L122.705 97.0519C124.209 97.0097 125.707 96.9929 127.199 97.0028L-333.638 575.62ZM226.438 228.561C226.567 229.967 226.694 231.375 226.819 232.784L-199.03 675.062C-200.133 674.677 -201.233 674.279 -202.33 673.87L226.438 228.561ZM-191.408 677.531C-192.552 677.189 -193.693 676.835 -194.832 676.469L227.282 238.07C227.399 239.426 227.516 240.781 227.633 242.137L227.634 242.155V242.156L227.647 242.309L-191.408 677.531ZM11.9383 123.087C9.94241 123.632 7.94958 124.163 5.96048 124.677L-365.114 510.067C-364.845 511.316 -364.559 512.559 -364.257 513.796L11.9383 123.087ZM-363.071 518.331C-362.74 519.517 -362.394 520.698 -362.034 521.873L25.7218 119.158C23.6601 119.766 21.6001 120.366 19.5425 120.957L-363.071 518.331ZM178.567 111.909C179.419 112.483 180.254 113.068 181.074 113.664L-299.065 612.327C-299.866 611.619 -300.663 610.907 -301.456 610.192L178.415 111.807L178.567 111.909ZM-293.605 617.042C-294.423 616.351 -295.237 615.657 -296.047 614.959L184.274 116.107C185.114 116.781 185.936 117.467 186.741 118.164L-293.605 617.042ZM-187.053 678.776L228.104 247.601C228.231 249.059 228.359 250.516 228.489 251.972L-183.386 679.737C-184.611 679.429 -185.834 679.109 -187.053 678.776ZM-178.872 680.816C-177.648 681.093 -176.422 681.359 -175.193 681.614L229.369 261.444C229.232 260.045 229.099 258.644 228.968 257.241L-178.872 680.816ZM-161.893 683.954C-160.587 684.144 -159.278 684.325 -157.967 684.495L231.473 280.031C231.293 278.676 231.119 277.317 230.952 275.953L-161.893 683.954ZM-166.719 683.199C-167.989 682.986 -169.257 682.764 -170.522 682.53L229.898 266.662C230.043 268.049 230.193 269.433 230.348 270.813L-166.719 683.199ZM-124.791 686.963C-123.343 687.004 -121.894 687.038 -120.443 687.066L237.912 314.886C237.644 313.626 237.376 312.365 237.108 311.103L-124.791 686.963ZM-130.164 686.777C-131.585 686.719 -133.004 686.653 -134.421 686.58L235.305 302.589C235.571 303.853 235.838 305.116 236.105 306.377L-130.164 686.777ZM-148.948 685.514C-150.298 685.383 -151.646 685.244 -152.991 685.094L232.177 285.067C232.373 286.4 232.576 287.728 232.788 289.051L-148.948 685.514ZM-143.829 685.964L233.615 293.958C233.846 295.255 234.085 296.546 234.334 297.83L-139.674 686.268C-141.061 686.175 -142.446 686.074 -143.829 685.964ZM-74.461 686.534L-73.3478 686.504L-73.3438 686.504H-73.3425L-73.3297 686.503L-73.2814 686.502L-71.6304 686.457L-69.8941 686.41L246.687 357.615C246.444 356.331 246.198 355.047 245.949 353.763L-74.461 686.534ZM247.589 362.446L-64.1964 686.26C-62.6782 686.221 -61.1598 686.183 -59.6413 686.147L248.293 366.333C248.062 365.037 247.827 363.742 247.589 362.446ZM249.147 371.213L-53.9701 686.025C-52.4619 685.995 -50.9536 685.968 -49.4456 685.944L249.81 375.143C249.593 373.833 249.372 372.523 249.147 371.213ZM250.607 380.083L-43.8238 685.872C-42.3312 685.858 -40.8391 685.848 -39.3474 685.842L251.218 384.067C251.019 382.739 250.815 381.411 250.607 380.083ZM-110.621 687.164C-112.07 687.162 -113.517 687.155 -114.963 687.142L238.918 319.609C239.181 320.847 239.444 322.085 239.707 323.321L-110.621 687.164ZM-105.054 687.15L240.707 328.049C240.974 329.314 241.24 330.577 241.505 331.84L-100.566 687.108C-102.064 687.126 -103.559 687.14 -105.054 687.15ZM-94.9324 687.024L242.493 336.581L242.657 337.372C242.733 337.74 242.809 338.108 242.885 338.476C242.988 338.975 243.09 339.475 243.193 339.974L243.277 340.385L-90.3998 686.935C-91.9117 686.967 -93.4226 686.997 -94.9324 687.024ZM-84.7208 686.804L244.245 345.147C244.502 346.422 244.757 347.697 245.01 348.971L-80.1614 686.688L-80.9771 686.709L-81.9277 686.734C-82.859 686.758 -83.7901 686.781 -84.7208 686.804ZM-23.3367 685.987C-21.9172 686.021 -20.4986 686.061 -19.0809 686.107L-19.0076 686.11L253.683 402.898C253.531 401.523 253.373 400.147 253.208 398.773L-23.3367 685.987ZM-28.7933 685.887C-30.4599 685.865 -32.1275 685.851 -33.7958 685.844L251.945 389.078C252.16 390.609 252.368 392.139 252.568 393.67L-28.7933 685.887ZM254.225 408.102L-13.6777 686.341C-12.2803 686.416 -10.8796 686.501 -9.47586 686.596L254.616 412.316C254.493 410.911 254.363 409.506 254.225 408.102ZM255.043 417.639L-4.30133 686.989C-2.93915 687.103 -1.57437 687.226 -0.207245 687.356L255.334 421.956C255.245 420.516 255.148 419.077 255.043 417.639ZM255.627 427.418L4.85059 687.87C6.18643 688.014 7.52423 688.164 8.86383 688.32L255.801 431.856C255.753 430.376 255.695 428.896 255.627 427.418ZM255.936 437.483L13.8347 688.925C15.1512 689.091 16.4692 689.262 17.7885 689.437L255.973 442.063C255.972 440.535 255.96 439.008 255.936 437.483ZM255.923 447.883L22.6965 690.107C23.9995 690.289 25.3036 690.474 26.6084 690.663L255.798 452.631C255.852 451.046 255.894 449.464 255.923 447.883ZM255.527 458.68L31.474 691.377C32.7686 691.569 34.0638 691.764 35.3594 691.96L255.209 463.629C255.33 461.977 255.435 460.327 255.527 458.68ZM254.674 469.952L40.2009 692.699C41.4676 692.893 42.7344 693.089 44.0013 693.284L254.151 475.027C254.227 474.284 254.305 473.543 254.384 472.803C254.486 471.851 254.582 470.901 254.674 469.952ZM253.525 481.444L48.8355 694.03C50.127 694.23 51.4184 694.428 52.7093 694.626L253.071 486.534C253.218 484.831 253.368 483.134 253.525 481.444ZM252.551 492.842L57.5529 695.362C58.8496 695.558 60.1457 695.752 61.441 695.943L252.162 497.864C252.289 496.186 252.418 494.511 252.551 492.842ZM251.7 504.111L66.3112 696.652C67.6178 696.839 68.9234 697.023 70.2278 697.203L251.343 509.101C251.461 507.434 251.58 505.771 251.7 504.111ZM250.902 515.325L75.1431 697.865C76.4649 698.038 77.7852 698.207 79.1039 698.37L250.547 520.313C250.618 519.322 250.689 518.332 250.759 517.343L250.902 515.325ZM250.093 526.552L84.0853 698.964C85.4285 699.117 86.7696 699.264 88.1086 699.404L249.713 531.565C249.842 529.894 249.969 528.222 250.093 526.552ZM249.21 537.855L93.1812 699.903C94.5531 700.029 95.9225 700.146 97.2891 700.255L248.776 542.924C248.925 541.235 249.07 539.545 249.21 537.855ZM248.186 549.304L102.484 700.627C103.894 700.716 105.301 700.795 106.705 700.862L247.665 554.463C247.846 552.746 248.019 551.026 248.186 549.304ZM246.942 560.982L112.063 701.064C113.573 701.105 115.079 701.132 116.58 701.143L246.27 566.449C246.504 564.632 246.728 562.809 246.942 560.982ZM126.746 700.971C125.224 701.036 123.696 701.083 122.162 701.112L245.35 573.172C245.083 575.009 244.803 576.84 244.51 578.663L126.746 700.971ZM149.189 698.434C147.423 698.775 145.646 699.08 143.858 699.351L240.562 598.916C240.073 601.006 239.558 603.081 239.017 605.14L149.189 698.434ZM132.636 700.62C134.27 700.495 135.897 700.346 137.515 700.172L242.192 591.457C242.582 589.541 242.953 587.615 243.307 585.68L132.636 700.62ZM194.742 678.251C194.042 678.797 193.339 679.331 192.632 679.853L217.757 653.759C211.485 662.853 203.917 671.094 194.742 678.251ZM156.26 696.857C158.316 696.334 160.355 695.757 162.376 695.123L234.385 620.337C235.195 618.026 235.962 615.689 236.688 613.326L156.26 696.857ZM230.675 629.956L170.873 692.065C173.569 690.964 176.228 689.746 178.846 688.403L226.573 638.836C228.034 635.936 229.399 632.974 230.675 629.956Z" fill="url(#paint5_linear_0_1)"/>
</g>
</g>
<defs>
<linearGradient id="paint0_linear_0_1" x1="1372" y1="444" x2="2011" y2="-181" gradientUnits="userSpaceOnUse">
<stop stop-color="#6676A9"/>
<stop offset="1" stop-color="#2F3045"/>
</linearGradient>
<linearGradient id="paint1_linear_0_1" x1="861" y1="504.355" x2="1309.99" y2="54.0076" gradientUnits="userSpaceOnUse">
<stop stop-color="#6676A9"/>
<stop offset="1" stop-color="#2F3045"/>
</linearGradient>
<linearGradient id="paint2_linear_0_1" x1="848" y1="360.765" x2="235.761" y2="1228.07" gradientUnits="userSpaceOnUse">
<stop stop-color="#6676A9"/>
<stop offset="1" stop-color="#2F3045"/>
</linearGradient>
<linearGradient id="paint3_linear_0_1" x1="178.783" y1="590" x2="834.783" y2="1244" gradientUnits="userSpaceOnUse">
<stop stop-color="#6676A9"/>
<stop offset="1" stop-color="#2F3045"/>
</linearGradient>
<linearGradient id="paint4_linear_0_1" x1="1444.18" y1="400.864" x2="1448.43" y2="1161.12" gradientUnits="userSpaceOnUse">
<stop stop-color="#6676A9"/>
<stop offset="1" stop-color="#2F3045"/>
</linearGradient>
<linearGradient id="paint5_linear_0_1" x1="-368" y1="701" x2="256.001" y2="96.9995" gradientUnits="userSpaceOnUse">
<stop stop-color="#6676A9"/>
<stop offset="1" stop-color="#2F3045"/>
</linearGradient>
<clipPath id="clip0_0_1">
<rect width="1920" height="4491" fill="white"/>
</clipPath>
</defs>
</svg>
