<svg width="40" height="40" viewBox="0 0 40 40" fill="none" xmlns="http://www.w3.org/2000/svg">
<path d="M37.4317 26.9488L28.2305 22.8258L28.2051 22.8141C27.7274 22.6098 27.2063 22.5278 26.689 22.5755C26.1717 22.6233 25.6744 22.7992 25.2422 23.0875C25.1913 23.1211 25.1424 23.1576 25.0957 23.1969L20.3418 27.2496C17.3301 25.7867 14.2207 22.7008 12.7578 19.7281L16.8164 14.9019C16.8555 14.8531 16.8926 14.8043 16.9278 14.7516C17.2098 14.3205 17.381 13.8264 17.426 13.3132C17.4709 12.8 17.3884 12.2837 17.1856 11.8102V11.7867L13.0508 2.56992C12.7827 1.95129 12.3217 1.43596 11.7367 1.10085C11.1517 0.765741 10.4739 0.628825 9.8047 0.710542C7.15816 1.0588 4.72888 2.35853 2.97059 4.36698C1.2123 6.37543 0.245233 8.95525 0.250018 11.6246C0.250018 27.1324 12.8672 39.7496 28.375 39.7496C31.0444 39.7544 33.6242 38.7873 35.6326 37.029C37.6411 35.2707 38.9408 32.8415 39.2891 30.1949C39.3709 29.5259 39.2343 28.8483 38.8996 28.2633C38.5648 27.6783 38.0499 27.2172 37.4317 26.9488ZM28.375 36.6246C21.7468 36.6174 15.3922 33.9811 10.7053 29.2943C6.0185 24.6074 3.38226 18.2528 3.37502 11.6246C3.36767 9.71736 4.0548 7.87264 5.3081 6.43497C6.56139 4.9973 8.29514 4.06497 10.1856 3.8121C10.1848 3.8199 10.1848 3.82775 10.1856 3.83554L14.2871 13.0152L10.25 17.8473C10.209 17.8943 10.1717 17.9446 10.1387 17.9977C9.84477 18.4487 9.67235 18.968 9.63813 19.5052C9.60391 20.0424 9.70906 20.5794 9.94338 21.0641C11.7129 24.6832 15.3594 28.3023 19.0176 30.0699C19.5058 30.302 20.0459 30.4036 20.5851 30.3645C21.1242 30.3255 21.6441 30.1473 22.0938 29.8473C22.144 29.8136 22.1923 29.7771 22.2383 29.7379L26.9863 25.6871L36.166 29.7984H36.1875C35.9377 31.6915 35.0068 33.4288 33.5689 34.6852C32.1309 35.9416 30.2845 36.631 28.375 36.6246Z" fill="#252525"/>
</svg>
