<svg width="25" height="25" viewBox="0 0 25 25" fill="none" xmlns="http://www.w3.org/2000/svg">
<path fill-rule="evenodd" clip-rule="evenodd" d="M12.5 1.41406C12.279 1.41406 12.0671 1.50186 11.9108 1.65814C11.7545 1.81442 11.6667 2.02638 11.6667 2.2474V5.8674C11.6667 6.08841 11.7545 6.30037 11.9108 6.45665C12.0671 6.61293 12.279 6.70073 12.5 6.70073C12.7211 6.70073 12.933 6.61293 13.0893 6.45665C13.2456 6.30037 13.3334 6.08841 13.3334 5.8674V3.1174C15.4347 3.30425 17.4124 4.19129 18.9494 5.6363C20.4864 7.08131 21.4937 9.00057 21.8097 11.0864C22.1257 13.1722 21.7322 15.3037 20.6923 17.1391C19.6523 18.9746 18.0261 20.4077 16.0745 21.2086C14.1229 22.0096 11.9588 22.132 9.92928 21.5562C7.89976 20.9805 6.12237 19.7399 4.88206 18.0334C3.64176 16.3269 3.01041 14.2534 3.08922 12.1452C3.16804 10.0371 3.95246 8.0165 5.31672 6.4074C5.39108 6.32451 5.44808 6.22757 5.48435 6.12229C5.52062 6.01701 5.53542 5.90553 5.52788 5.79443C5.52034 5.68334 5.49061 5.57488 5.44045 5.47547C5.39029 5.37605 5.32071 5.2877 5.23583 5.21563C5.15095 5.14356 5.05248 5.08923 4.94625 5.05585C4.84002 5.02247 4.72817 5.01073 4.61732 5.0213C4.50648 5.03187 4.39887 5.06456 4.30086 5.11742C4.20286 5.17028 4.11644 5.24224 4.04672 5.32906C2.41353 7.25497 1.48695 9.68083 1.42036 12.2051C1.35377 14.7294 2.15115 17.2007 3.68053 19.2101C5.20991 21.2194 7.37957 22.6463 9.83039 23.2545C12.2812 23.8626 14.8662 23.6157 17.1576 22.5545C19.449 21.4933 21.3092 19.6815 22.4305 17.4189C23.5518 15.1564 23.8669 12.5788 23.3236 10.1128C22.7803 7.64674 21.4112 5.44018 19.4429 3.85831C17.4746 2.27644 15.0252 1.41411 12.5 1.41406ZM11.2334 13.4641L7.04005 7.61906C6.98422 7.53883 6.95837 7.44152 6.96704 7.34415C6.9757 7.24679 7.01832 7.15557 7.08744 7.08645C7.15656 7.01733 7.24778 6.97471 7.34514 6.96605C7.4425 6.95739 7.53981 6.98323 7.62005 7.03906L13.4684 11.2307C13.6566 11.3662 13.813 11.541 13.927 11.7429C14.0409 11.9448 14.1096 12.1691 14.1283 12.4002C14.147 12.6313 14.1152 12.8638 14.0352 13.0814C13.9552 13.299 13.8289 13.4966 13.6649 13.6606C13.5009 13.8245 13.3033 13.9509 13.0857 14.0309C12.8681 14.1109 12.6357 14.1427 12.4045 14.124C12.1734 14.1053 11.9491 14.0366 11.7472 13.9227C11.5453 13.8087 11.3705 13.6522 11.2351 13.4641" fill="#F1F1F1"/>
</svg>
